<svg xmlns="http://www.w3.org/2000/svg" version="1.1" viewBox="0.8570442199707031 1.3028011322021484 457.9605712890625 556.4793701171875" width="460.00" height="559.00">
<g stroke-width="2.00" fill="none" stroke-linecap="butt">
<path stroke="#666b6f" d="&#10;  M 118.99 120.75&#10;  Q 115.11 143.08 119.95 164.98"/>
<path stroke="#495156" d="&#10;  M 119.95 164.98&#10;  Q 127.68 197.14 152.95 220.55&#10;  C 177.49 243.27 208.51 259.38 241.99 264.03&#10;  Q 262.00 266.80 279.00 265.52&#10;  C 305.33 263.53 331.78 253.28 354.32 239.30&#10;  Q 373.62 227.34 386.66 209.90&#10;  Q 393.80 200.37 396.97 187.74&#10;  C 402.52 165.62 406.10 145.31 404.14 124.37&#10;  Q 403.25 114.92 400.74 107.26&#10;  C 394.09 86.90 382.64 69.15 365.70 54.80&#10;  Q 357.56 47.91 348.57 42.64"/>
<path stroke="#666b6f" d="&#10;  M 348.57 42.64&#10;  Q 345.97 39.98 340.96 37.54"/>
<path stroke="#7f7f80" d="&#10;  M 340.96 37.54&#10;  C 318.77 24.28 292.31 17.44 266.61 15.66&#10;  Q 212.03 11.87 167.92 43.65&#10;  Q 161.17 48.52 155.39 54.39&#10;  C 137.21 72.83 124.20 94.82 118.99 120.75"/>
<path stroke="#e4e9ee" d="&#10;  M 340.96 37.54&#10;  Q 341.24 38.06 341.12 38.14&#10;  A 0.86 0.86 0.0 0 1 340.17 38.15&#10;  Q 333.32 33.76 325.74 31.57&#10;  Q 321.44 30.33 310.31 28.72&#10;  Q 271.66 23.13 233.24 28.43&#10;  Q 201.96 32.74 175.39 43.17&#10;  Q 168.67 45.81 167.22 46.30&#10;  C 165.91 46.75 164.20 47.62 163.37 48.33&#10;  Q 153.39 56.82 144.06 68.85&#10;  Q 126.27 91.78 120.24 119.55&#10;  Q 119.77 121.72 118.99 120.75"/>
<path stroke="#adbbc4" d="&#10;  M 348.57 42.64&#10;  Q 360.37 55.37 366.53 69.95&#10;  Q 367.23 71.62 368.65 73.63&#10;  Q 369.95 75.46 370.74 77.38"/>
<path stroke="#666b6f" d="&#10;  M 370.74 77.38&#10;  Q 363.30 68.87 354.34 64.13&#10;  Q 340.13 56.61 323.09 55.76&#10;  C 316.84 55.45 311.90 55.44 306.57 56.77&#10;  A 1.37 1.36 84.6 0 0 305.53 58.03&#10;  L 305.07 68.07&#10;  A 1.73 1.72 89.9 0 0 306.87 69.87&#10;  Q 312.34 69.60 318.02 69.70&#10;  C 337.10 70.04 353.49 77.25 368.83 89.20&#10;  A 1.07 1.06 -29.3 0 0 369.60 89.41&#10;  Q 369.98 89.37 370.22 89.22"/>
<path stroke="#adbbc4" d="&#10;  M 370.22 89.22&#10;  Q 370.45 89.08 370.62 89.16&#10;  Q 370.79 89.24 370.82 89.45&#10;  Q 370.84 89.68 370.69 89.79&#10;  Q 370.36 90.06 370.45 90.48&#10;  Q 371.75 96.34 370.92 102.19"/>
<path stroke="#666b6f" d="&#10;  M 370.92 102.19&#10;  Q 342.07 76.91 304.51 86.09"/>
<path stroke="#e2e7eb" stroke-opacity="0.969" d="&#10;  M 304.51 86.09&#10;  Q 304.68 85.77 304.60 85.50&#10;  Q 304.44 84.98 303.92 85.14&#10;  C 288.70 89.93 274.60 99.37 269.36 114.99&#10;  Q 269.25 115.31 269.41 115.58&#10;  Q 269.67 116.00 270.02 115.65&#10;  Q 270.27 115.39 270.43 114.93"/>
<path stroke="#666b6f" d="&#10;  M 270.43 114.93&#10;  C 266.07 137.52 276.66 162.52 294.80 176.10&#10;  C 316.45 192.32 345.92 194.08 368.03 177.48"/>
<path stroke="#adbbc4" d="&#10;  M 368.03 177.48&#10;  Q 368.08 179.07 365.53 180.30&#10;  Q 364.72 180.69 363.73 182.56&#10;  C 361.43 186.89 358.08 190.51 353.61 194.85&#10;  Q 342.07 206.07 328.54 212.47"/>
<path stroke="#666b6f" d="&#10;  M 328.54 212.47&#10;  C 327.91 203.96 322.82 197.77 315.91 193.41&#10;  C 305.21 186.65 294.09 183.13 281.14 179.58&#10;  C 255.03 172.42 228.22 169.81 201.55 175.05&#10;  C 190.67 177.19 177.55 181.35 174.68 193.23&#10;  Q 170.24 211.60 183.48 228.19"/>
<path stroke="#adbbc4" d="&#10;  M 183.48 228.19&#10;  Q 168.60 223.20 154.44 212.30&#10;  Q 141.68 202.47 132.75 189.01&#10;  Q 129.58 184.25 126.38 179.50&#10;  Q 124.57 176.82 123.22 173.08&#10;  Q 121.73 168.97 119.95 164.98"/>
<path stroke="#495156" d="&#10;  M 183.48 228.19&#10;  Q 191.74 237.96 203.20 245.05&#10;  Q 221.27 256.21 244.00 258.73&#10;  C 268.97 261.50 291.52 258.66 311.90 243.18&#10;  Q 318.68 238.04 323.42 229.92&#10;  Q 328.27 221.63 328.54 212.47"/>
<path stroke="#495156" d="&#10;  M 368.03 177.48&#10;  C 384.41 164.68 393.10 142.72 385.10 122.92&#10;  Q 380.27 110.96 370.92 102.19"/>
<path stroke="#495156" d="&#10;  M 370.22 89.22&#10;  C 372.59 87.20 374.59 84.29 373.04 81.71&#10;  Q 371.67 79.44 370.74 77.38"/>
<path stroke="#7a7a79" stroke-opacity="0.969" d="&#10;  M 270.43 114.93&#10;  C 275.86 99.64 289.47 90.52 304.51 86.09"/>
<path stroke="#666b6f" d="&#10;  M 419.37 38.44&#10;  A 6.93 6.93 0.0 0 0 412.44 31.51&#10;  A 6.93 6.93 0.0 0 0 405.51 38.44&#10;  A 6.93 6.93 0.0 0 0 412.44 45.37&#10;  A 6.93 6.93 0.0 0 0 419.37 38.44"/>
<path stroke="#666b6f" d="&#10;  M 85.39 105.21&#10;  L 82.78 114.51"/>
<path stroke="#495156" d="&#10;  M 82.78 114.51&#10;  Q 81.27 120.99 80.96 127.63&#10;  C 80.38 139.89 81.14 152.19 93.51 158.67&#10;  Q 101.65 162.94 105.26 164.59&#10;  A 0.33 0.32 -83.4 0 0 105.71 164.23&#10;  Q 103.62 152.51 103.37 140.56"/>
<path stroke="#666b6f" d="&#10;  M 103.37 140.56&#10;  Q 103.13 112.61 115.19 87.77"/>
<path stroke="#7f7f80" d="&#10;  M 115.19 87.77&#10;  L 117.75 82.64&#10;  A 0.47 0.47 0.0 0 0 117.37 81.96&#10;  C 100.41 80.85 89.60 89.16 85.39 105.21"/>
<path stroke="#e4e9ee" d="&#10;  M 115.19 87.77&#10;  Q 102.79 90.57 94.34 100.34&#10;  Q 92.97 101.92 89.44 105.93&#10;  Q 88.00 107.57 86.00 107.71&#10;  Q 85.48 107.74 85.46 107.22&#10;  L 85.39 105.21"/>
<path stroke="#adbbc4" d="&#10;  M 103.37 140.56&#10;  C 97.66 140.13 93.18 140.36 88.61 135.81&#10;  Q 85.04 132.27 83.22 126.50&#10;  Q 82.52 124.25 82.66 120.51&#10;  Q 82.78 117.52 82.78 114.51"/>
<path stroke="#495156" d="&#10;  M 408.30 196.49&#10;  A 0.38 0.38 0.0 0 0 408.65 196.99&#10;  C 421.61 197.24 433.84 194.84 439.13 181.39&#10;  Q 447.05 161.22 444.56 138.96&#10;  C 443.70 131.23 441.14 124.47 434.19 120.32&#10;  Q 426.60 115.79 416.78 113.81&#10;  Q 416.28 113.71 416.37 114.20&#10;  Q 419.03 128.92 418.14 144.74&#10;  Q 416.64 171.43 408.30 196.49"/>
<path stroke="#724c11" d="&#10;  M 73.95 245.36&#10;  L 91.31 237.44&#10;  Q 91.80 237.22 91.50 236.77&#10;  L 85.79 228.40"/>
<path stroke="#53340b" d="&#10;  M 85.79 228.40&#10;  Q 84.26 226.12 82.20 224.52&#10;  A 0.52 0.52 0.0 0 0 81.54 224.54&#10;  L 43.62 258.15&#10;  Q 40.95 260.51 44.19 259.02&#10;  L 73.95 245.36"/>
<path stroke="#c47f1a" d="&#10;  M 85.79 228.40&#10;  Q 78.91 235.91 73.95 245.36"/>
<path stroke="#635353" d="&#10;  M 65.83 262.26&#10;  Q 65.05 262.59 65.88 262.47&#10;  L 120.10 254.96&#10;  A 0.20 0.20 0.0 0 0 120.27 254.73&#10;  L 118.45 241.59&#10;  A 1.18 1.18 0.0 0 0 116.82 240.66&#10;  L 65.83 262.26"/>
<path stroke="#495156" d="&#10;  M 202.49 400.98&#10;  L 216.18 408.53"/>
<path stroke="#666b6f" d="&#10;  M 216.18 408.53&#10;  Q 227.23 414.66 236.86 422.60&#10;  A 0.92 0.91 -47.2 0 0 238.08 422.55&#10;  L 248.36 412.52"/>
<path stroke="#495156" d="&#10;  M 248.36 412.52&#10;  L 263.27 400.00"/>
<path stroke="#666b6f" d="&#10;  M 263.27 400.00&#10;  Q 274.67 391.90 287.77 384.55"/>
<path stroke="#495156" d="&#10;  M 287.77 384.55&#10;  L 293.23 381.87"/>
<path stroke="#666b6f" d="&#10;  M 293.23 381.87&#10;  Q 305.45 375.60 318.40 371.01"/>
<path stroke="#495156" d="&#10;  M 318.40 371.01&#10;  L 320.90 370.21&#10;  Q 321.39 370.05 321.64 369.60&#10;  Q 326.92 360.24 329.27 354.01&#10;  Q 339.22 327.51 325.81 301.90&#10;  Q 317.52 286.08 303.99 276.17&#10;  Q 303.51 275.82 302.94 275.95&#10;  Q 284.72 279.99 265.91 279.85"/>
<path stroke="#666b6f" d="&#10;  M 265.91 279.85&#10;  Q 228.24 280.19 193.88 264.76&#10;  A 0.83 0.83 0.0 0 0 193.04 264.86&#10;  L 178.89 275.60&#10;  Q 178.34 276.02 178.91 276.42&#10;  Q 189.22 283.76 189.96 296.57&#10;  Q 190.86 312.11 178.62 320.65&#10;  Q 178.16 320.97 178.24 321.53&#10;  Q 179.21 328.26 180.04 334.84&#10;  C 181.15 343.70 174.35 351.99 165.51 353.27&#10;  Q 163.24 353.60 158.27 354.88&#10;  Q 157.77 355.01 158.00 355.47&#10;  Q 166.36 372.33 179.94 386.10&#10;  Q 184.19 390.40 188.11 394.45&#10;  Q 188.84 395.19 189.79 395.60&#10;  L 202.49 400.98"/>
<path stroke="#adbbc4" d="&#10;  M 265.91 279.85&#10;  Q 276.38 286.01 284.89 294.29&#10;  C 293.40 302.58 298.44 311.81 301.48 323.11&#10;  C 306.16 340.51 301.52 359.77 293.01 375.50&#10;  Q 290.69 379.78 287.60 383.49&#10;  Q 287.30 383.85 287.42 384.31&#10;  Q 287.49 384.56 287.77 384.55"/>
<path stroke="#adbbc4" d="&#10;  M 263.27 400.00&#10;  Q 252.24 404.12 241.89 405.17"/>
<path stroke="#666b6f" d="&#10;  M 241.89 405.17&#10;  L 241.91 395.21&#10;  Q 241.91 394.69 242.42 394.63&#10;  Q 247.94 393.94 254.74 391.25&#10;  Q 268.76 385.71 271.61 371.77&#10;  C 275.87 350.89 259.70 341.75 242.62 337.89&#10;  Q 241.83 337.71 241.85 336.90&#10;  L 242.43 310.73&#10;  Q 242.44 310.33 242.83 310.40&#10;  Q 251.03 311.71 258.04 317.04&#10;  Q 259.26 317.97 259.78 318.86&#10;  A 0.26 0.25 48.9 0 0 260.20 318.89&#10;  L 269.65 307.12&#10;  Q 270.01 306.66 269.55 306.31&#10;  Q 257.38 297.09 242.83 295.12&#10;  Q 242.28 295.04 242.30 294.49&#10;  L 242.44 287.89&#10;  A 0.56 0.56 0.0 0 0 241.89 287.31&#10;  L 231.25 287.07&#10;  A 0.70 0.70 0.0 0 0 230.54 287.75&#10;  L 230.39 294.52&#10;  Q 230.38 295.08 229.83 295.16&#10;  C 213.89 297.55 200.23 307.99 202.23 325.77&#10;  C 203.98 341.22 215.94 347.08 229.64 350.82&#10;  Q 230.17 350.97 230.15 351.51&#10;  L 229.54 379.20&#10;  Q 229.53 379.69 229.05 379.59&#10;  Q 218.09 377.26 210.86 369.23&#10;  A 0.53 0.52 -46.3 0 0 210.06 369.25&#10;  L 200.92 380.64&#10;  A 0.98 0.97 44.3 0 0 200.94 381.89&#10;  C 207.63 389.59 219.32 393.77 229.35 395.02&#10;  A 0.55 0.54 -86.4 0 1 229.82 395.56&#10;  L 229.74 406.40"/>
<path stroke="#adbbc4" d="&#10;  M 229.74 406.40&#10;  Q 216.50 404.63 202.49 400.98"/>
<path stroke="#adbbc4" d="&#10;  M 318.40 371.01&#10;  Q 318.38 370.83 318.37 370.70&#10;  Q 318.35 370.42 318.06 370.40&#10;  Q 317.92 370.38 317.77 370.43&#10;  Q 305.14 374.64 293.42 380.94&#10;  Q 293.10 381.11 292.94 381.30&#10;  Q 292.75 381.54 292.99 381.72&#10;  Q 293.09 381.79 293.23 381.87"/>
<path stroke="#adbbc4" d="&#10;  M 248.36 412.52&#10;  Q 242.73 416.14 238.40 420.95&#10;  A 1.63 1.63 0.0 0 1 236.14 421.12&#10;  Q 227.52 413.96 217.45 408.32&#10;  Q 215.96 407.48 216.18 408.53"/>
<path stroke="#495156" d="&#10;  M 241.89 405.17&#10;  Q 242.14 406.17 241.83 406.85&#10;  Q 241.62 407.32 241.10 407.28&#10;  L 229.74 406.40"/>
<path stroke="#724c11" d="&#10;  M 149.30 265.31&#10;  Q 103.86 271.13 58.52 277.10&#10;  Q 34.93 280.21 26.63 281.66&#10;  Q 24.69 282.00 23.62 282.30&#10;  Q 23.18 282.43 23.24 282.87&#10;  L 24.87 294.60&#10;  A 0.51 0.51 0.0 0 0 25.45 295.04&#10;  Q 33.19 294.00 38.42 293.88&#10;  C 45.22 293.72 51.24 298.08 54.36 304.03&#10;  Q 55.72 306.62 56.16 311.86&#10;  C 56.85 320.01 58.68 325.87 52.79 332.55&#10;  C 46.75 339.41 40.33 339.01 32.03 339.99&#10;  Q 31.49 340.05 31.57 340.58&#10;  L 33.19 351.32"/>
<path stroke="#53340b" d="&#10;  M 33.19 351.32&#10;  Q 33.41 354.92 34.67 357.72&#10;  A 0.94 0.94 0.0 0 0 35.66 358.26&#10;  L 163.80 340.50&#10;  A 2.88 2.88 0.0 0 0 166.26 337.25&#10;  L 164.46 324.23&#10;  Q 164.35 323.42 163.53 323.51&#10;  Q 160.64 323.84 150.76 325.10&#10;  Q 144.85 325.86 139.26 321.59"/>
<path stroke="#724c11" d="&#10;  M 139.26 321.59&#10;  Q 134.25 317.10 132.70 308.87&#10;  Q 130.95 299.63 131.50 296.51&#10;  C 132.68 289.82 136.96 284.32 143.63 282.69&#10;  Q 145.63 282.20 147.49 281.83"/>
<path stroke="#53340b" d="&#10;  M 147.49 281.83&#10;  L 156.13 280.67&#10;  A 0.59 0.59 0.0 0 0 156.63 279.98&#10;  Q 155.45 273.60 153.81 266.95&#10;  Q 153.19 264.47 149.30 265.31"/>
<path stroke="#c47f1a" d="&#10;  M 147.49 281.83&#10;  L 149.30 265.31"/>
<path stroke="#c47f1a" d="&#10;  M 139.26 321.59&#10;  Q 136.55 321.18 134.71 317.25&#10;  A 0.62 0.61 56.6 0 0 133.74 317.05&#10;  Q 129.44 320.90 124.14 324.13&#10;  Q 106.30 334.97 86.43 340.65&#10;  C 67.75 345.99 51.15 348.31 33.19 351.32"/>
<path stroke="#495156" d="&#10;  M 146.07 305.80&#10;  Q 146.52 309.32 149.58 310.55&#10;  Q 151.37 311.27 154.96 310.82&#10;  Q 162.03 309.92 169.12 309.11&#10;  C 174.19 308.54 176.69 301.71 175.96 297.51"/>
<path stroke="#666b6f" d="&#10;  M 175.96 297.51&#10;  Q 175.02 292.97 171.56 290.20&#10;  A 0.46 0.46 0.0 0 0 170.93 290.26&#10;  Q 167.84 293.85 163.01 294.31&#10;  Q 154.42 295.14 151.31 295.70&#10;  C 145.03 296.82 144.38 300.15 146.07 305.80"/>
<path stroke="#adbbc4" d="&#10;  M 175.96 297.51&#10;  Q 173.50 303.76 168.11 305.12&#10;  Q 158.52 307.55 146.07 305.80"/>
<path stroke="#666b6f" d="&#10;  M 372.59 299.78&#10;  L 372.55 304.49"/>
<path stroke="#495156" d="&#10;  M 372.55 304.49&#10;  L 372.80 308.71&#10;  Q 372.84 309.34 373.45 309.49&#10;  L 385.95 312.59&#10;  Q 386.31 312.68 386.30 312.30&#10;  L 386.18 307.89"/>
<path stroke="#666b6f" d="&#10;  M 386.18 307.89&#10;  L 387.08 299.48"/>
<path stroke="#7f7f80" d="&#10;  M 387.08 299.48&#10;  L 388.34 294.71&#10;  Q 388.51 294.08 387.85 294.06&#10;  L 373.64 293.75&#10;  A 0.77 0.77 0.0 0 0 372.85 294.49&#10;  L 372.59 299.78"/>
<path stroke="#e4e9ee" d="&#10;  M 387.08 299.48&#10;  Q 380.98 299.46 375.00 299.36&#10;  Q 374.26 299.35 373.73 299.81&#10;  Q 373.39 300.10 373.19 300.09&#10;  Q 372.90 300.06 372.59 299.78"/>
<path stroke="#adbbc4" d="&#10;  M 386.18 307.89&#10;  L 372.55 304.49"/>
<path stroke="#495156" d="&#10;  M 357.30 300.09&#10;  C 357.40 302.39 358.03 304.32 360.43 305.10&#10;  Q 363.46 306.09 366.41 307.03&#10;  A 0.52 0.51 -82.0 0 0 367.08 306.52&#10;  L 366.94 300.96"/>
<path stroke="#666b6f" d="&#10;  M 366.94 300.96&#10;  L 367.06 294.99&#10;  Q 367.08 294.36 366.45 294.45&#10;  L 357.17 295.73&#10;  Q 356.60 295.81 356.56 296.39&#10;  Q 356.44 298.18 357.30 300.09"/>
<path stroke="#adbbc4" d="&#10;  M 366.94 300.96&#10;  Q 365.29 301.80 362.91 301.51&#10;  Q 359.28 301.06 357.30 300.09"/>
<path stroke="#666b6f" d="&#10;  M 393.06 309.20&#10;  Q 392.94 309.02 392.82 308.85"/>
<path stroke="#495156" d="&#10;  M 392.82 308.85&#10;  L 393.43 313.26"/>
<path stroke="#666b6f" d="&#10;  M 393.43 313.26&#10;  Q 393.51 314.52 394.50 314.80&#10;  Q 398.25 315.87 405.38 316.37"/>
<path stroke="#495156" d="&#10;  M 405.38 316.37&#10;  Q 407.43 317.58 411.88 317.79&#10;  A 0.76 0.76 0.0 0 0 412.65 317.23&#10;  L 413.51 314.12"/>
<path stroke="#666b6f" d="&#10;  M 413.51 314.12&#10;  L 417.84 304.07"/>
<path stroke="#7f7f80" d="&#10;  M 417.84 304.07&#10;  L 420.37 300.03&#10;  A 0.41 0.41 0.0 0 0 420.16 299.42&#10;  Q 408.39 295.28 396.16 294.86&#10;  Q 395.63 294.84 395.41 295.33&#10;  Q 392.50 301.71 393.06 309.20"/>
<path stroke="#e4e9ee" d="&#10;  M 417.84 304.07&#10;  L 395.90 299.36&#10;  A 0.94 0.93 -78.5 0 0 394.79 300.10&#10;  L 393.06 309.20"/>
<path stroke="#adbbc4" d="&#10;  M 413.51 314.12&#10;  L 392.82 308.85"/>
<path stroke="#adbbc4" d="&#10;  M 405.38 316.37&#10;  L 393.43 313.26"/>
<path stroke="#495156" d="&#10;  M 351.13 297.62&#10;  A 0.31 0.31 0.0 0 0 350.74 297.36&#10;  L 344.29 299.21&#10;  Q 342.83 299.63 344.28 300.09&#10;  L 352.09 302.56&#10;  Q 352.70 302.76 352.42 302.18&#10;  Q 351.37 300.07 351.13 297.62"/>
<path stroke="#666b6f" d="&#10;  M 427.31 302.83&#10;  C 423.94 307.88 421.54 311.53 421.34 317.56&#10;  A 0.83 0.82 -87.1 0 0 422.10 318.41&#10;  C 426.98 318.80 435.96 318.44 439.50 315.11&#10;  C 441.11 313.60 441.99 311.58 440.20 309.80&#10;  Q 435.52 305.14 429.01 302.33&#10;  A 1.40 1.39 28.5 0 0 427.31 302.83"/>
<path stroke="#495156" d="&#10;  M 14.52 318.61&#10;  Q 16.71 327.84 26.70 326.18&#10;  Q 31.94 325.31 37.26 324.57&#10;  Q 40.09 324.17 41.25 322.75&#10;  Q 42.80 320.85 42.52 318.08"/>
<path stroke="#7a7a79" stroke-opacity="0.969" d="&#10;  M 42.52 318.08&#10;  C 42.63 314.90 41.52 308.88 37.66 308.86&#10;  Q 33.34 308.84 21.18 310.37&#10;  Q 17.24 310.87 15.90 312.39&#10;  Q 13.92 314.63 14.52 318.61"/>
<path stroke="#c4ccd1" stroke-opacity="0.969" d="&#10;  M 42.52 318.08&#10;  Q 33.31 320.04 23.87 320.06&#10;  C 20.66 320.07 17.78 319.19 14.52 318.61"/>
<path stroke="#18561d" d="&#10;  M 267.75 414.50&#10;  L 261.57 419.90"/>
<path stroke="#13471a" d="&#10;  M 261.57 419.90&#10;  Q 254.42 425.02 248.45 431.69&#10;  A 0.64 0.64 0.0 0 0 248.49 432.59&#10;  Q 266.44 449.92 280.68 470.36&#10;  A 0.37 0.37 0.0 0 0 281.27 470.40&#10;  Q 291.42 458.78 303.07 448.60"/>
<path stroke="#18561d" d="&#10;  M 303.07 448.60&#10;  C 323.56 431.13 348.05 416.68 374.08 410.12&#10;  Q 380.40 408.53 386.27 408.18&#10;  Q 387.87 408.08 388.47 409.02&#10;  A 0.78 0.78 0.0 0 1 388.04 410.18&#10;  Q 381.30 412.27 375.22 414.97&#10;  C 353.96 424.43 334.83 437.49 317.27 452.66"/>
<path stroke="#13471a" d="&#10;  M 317.27 452.66&#10;  Q 306.37 462.64 295.91 473.90&#10;  Q 292.09 478.01 288.92 482.60&#10;  Q 288.45 483.29 288.85 484.03&#10;  Q 299.90 504.33 303.75 525.91&#10;  A 0.24 0.24 0.0 0 0 304.09 526.09&#10;  Q 318.40 520.02 330.62 511.85&#10;  C 355.08 495.50 376.77 475.16 393.97 451.72&#10;  Q 410.37 429.37 421.41 405.86"/>
<path stroke="#18561d" d="&#10;  M 421.41 405.86&#10;  L 430.35 384.95&#10;  Q 430.74 384.04 429.78 383.82&#10;  L 409.74 379.09"/>
<path stroke="#7f7f80" d="&#10;  M 409.74 379.09&#10;  Q 375.81 373.06 342.25 379.81&#10;  C 328.20 382.64 314.05 386.64 301.90 392.88&#10;  C 290.44 398.77 278.19 405.70 267.75 414.50"/>
<path stroke="#96d49b" d="&#10;  M 409.74 379.09&#10;  Q 404.85 379.52 399.93 379.45&#10;  C 386.35 379.25 372.79 380.79 358.98 382.64&#10;  C 352.69 383.49 345.30 385.20 340.21 386.18&#10;  Q 333.74 387.43 326.27 389.54&#10;  C 306.52 395.12 286.59 403.38 268.69 414.61"/>
<path stroke="#91c598" d="&#10;  M 268.69 414.61&#10;  Q 268.27 415.06 267.95 414.84"/>
<path stroke="#96d49b" d="&#10;  M 267.95 414.84&#10;  Q 267.88 415.13 267.75 414.50"/>
<path stroke="#2a9c35" d="&#10;  M 421.41 405.86&#10;  Q 419.42 405.15 418.60 406.09&#10;  Q 399.61 427.81 374.58 441.00&#10;  C 360.00 448.67 345.97 452.23 329.43 453.41&#10;  Q 322.07 453.93 317.27 452.66"/>
<path stroke="#2a9c35" d="&#10;  M 303.07 448.60&#10;  Q 281.26 437.59 269.29 416.55&#10;  Q 268.85 415.78 268.69 414.61"/>
<path stroke="#2a9c35" d="&#10;  M 267.95 414.84&#10;  Q 265.09 418.72 261.57 419.90"/>
<path stroke="#18561d" d="&#10;  M 20.21 413.68&#10;  Q 19.17 413.53 18.13 414.61&#10;  Q 17.78 414.98 17.92 415.47&#10;  Q 18.39 417.20 19.27 418.72&#10;  Q 22.48 424.29 25.73 429.80"/>
<path stroke="#13471a" d="&#10;  M 25.73 429.80&#10;  Q 29.26 436.02 35.67 445.09&#10;  C 59.64 479.03 91.18 507.19 128.78 524.32&#10;  Q 185.29 550.06 246.52 543.02&#10;  C 255.97 541.93 265.19 539.92 274.05 537.17&#10;  A 0.28 0.28 0.0 0 0 274.14 536.68&#10;  C 251.99 519.43 231.28 502.96 207.80 489.24"/>
<path stroke="#18561d" d="&#10;  M 207.80 489.24&#10;  Q 186.36 475.57 160.89 464.36&#10;  Q 125.02 448.57 90.30 440.84&#10;  Q 89.71 440.70 89.52 440.40&#10;  Q 89.28 440.00 89.41 439.57&#10;  A 0.87 0.86 8.5 0 1 90.27 438.94&#10;  C 127.16 440.00 164.55 451.67 197.69 468.84&#10;  Q 205.21 472.74 216.16 479.11"/>
<path stroke="#13471a" d="&#10;  M 216.16 479.11&#10;  Q 241.00 494.22 255.27 504.97&#10;  Q 273.79 518.92 289.46 531.85&#10;  A 0.87 0.87 0.0 0 0 290.85 531.39&#10;  Q 291.04 530.65 290.79 529.48&#10;  Q 281.02 483.49 247.24 450.91"/>
<path stroke="#18561d" d="&#10;  M 247.24 450.91&#10;  L 241.00 444.95"/>
<path stroke="#666b6f" d="&#10;  M 241.00 444.95&#10;  L 235.76 440.11"/>
<path stroke="#495156" d="&#10;  M 235.76 440.11&#10;  L 228.43 434.26"/>
<path stroke="#7a7a79" stroke-opacity="0.969" d="&#10;  M 228.43 434.26&#10;  Q 217.07 424.99 205.07 418.42&#10;  Q 168.36 398.32 126.27 393.87"/>
<path stroke="#7f7f80" d="&#10;  M 126.27 393.87&#10;  C 102.96 391.68 79.47 393.51 56.75 398.95&#10;  C 47.75 401.11 38.55 404.65 30.36 408.09&#10;  Q 25.07 410.31 20.21 413.68"/>
<path stroke="#fdfcfc" stroke-opacity="0.969" d="&#10;  M 126.27 393.87&#10;  L 124.84 398.20&#10;  A 2.22 2.20 -60.3 0 0 125.47 400.55&#10;  L 128.31 403.04"/>
<path stroke="#96d49b" d="&#10;  M 128.31 403.04&#10;  Q 102.01 400.10 75.74 401.85&#10;  Q 54.79 403.25 35.64 408.42&#10;  Q 28.85 410.25 20.21 413.68"/>
<path stroke="#5fa671" d="&#10;  M 228.55 437.96&#10;  L 233.88 441.30"/>
<path stroke="#7cc08b" d="&#10;  M 233.88 441.30&#10;  L 238.30 443.94"/>
<path stroke="#2a9c35" d="&#10;  M 238.30 443.94&#10;  Q 234.02 456.29 227.94 464.94&#10;  Q 224.49 469.84 216.16 479.11"/>
<path stroke="#2a9c35" d="&#10;  M 207.80 489.24&#10;  C 205.39 489.58 204.03 488.03 201.89 487.99&#10;  Q 200.36 487.96 199.16 488.42&#10;  Q 190.43 491.76 184.41 492.91&#10;  C 156.31 498.23 127.55 492.97 101.18 480.83&#10;  Q 86.49 474.06 67.59 462.01&#10;  C 55.18 454.10 43.88 444.52 32.80 434.45&#10;  Q 29.85 431.76 25.73 429.80"/>
<path stroke="#c4ccd1" stroke-opacity="0.969" d="&#10;  M 228.43 434.26&#10;  Q 228.63 435.30 228.45 436.20&#10;  Q 228.34 436.73 228.76 437.06&#10;  L 229.57 437.71&#10;  Q 230.12 438.16 229.41 438.07&#10;  L 228.55 437.96"/>
<path stroke="#91d296" stroke-opacity="0.969" d="&#10;  M 228.55 437.96&#10;  Q 213.92 428.98 207.57 425.92&#10;  Q 169.81 407.72 128.31 403.04"/>
<path stroke="#2a9c35" d="&#10;  M 240.61 445.62&#10;  L 246.99 451.52&#10;  Q 247.52 452.01 247.34 451.31&#10;  L 247.24 450.91"/>
<path stroke="#7cc08b" d="&#10;  M 241.00 444.95&#10;  Q 240.89 445.32 240.61 445.62"/>
<path stroke="#78b188" d="&#10;  M 240.61 445.62&#10;  Q 239.59 444.59 238.30 443.94"/>
<path stroke="#adbbc4" d="&#10;  M 235.76 440.11&#10;  Q 234.36 440.46 233.88 441.30"/>
<path stroke="#e4e9ee" d="&#10;  M 184.33 45.79&#10;  Q 179.97 45.90 175.58 48.55&#10;  Q 171.04 51.28 163.55 56.56&#10;  Q 158.41 60.17 161.47 64.76&#10;  C 163.04 67.13 165.57 66.85 167.81 65.81&#10;  Q 174.15 62.89 180.08 61.26&#10;  Q 180.52 61.14 180.23 60.79&#10;  Q 179.96 60.46 178.64 60.70"/>
<path stroke="#666b6f" d="&#10;  M 178.64 60.70&#10;  Q 197.63 54.37 216.72 59.11&#10;  Q 224.08 60.94 231.26 63.47&#10;  A 0.82 0.82 0.0 0 0 232.28 63.03&#10;  Q 234.21 58.66 235.04 53.77&#10;  Q 235.28 52.32 234.94 51.77&#10;  C 233.33 49.19 226.86 46.96 223.84 46.12&#10;  Q 204.02 40.59 184.33 45.79"/>
<path stroke="#7f7f80" d="&#10;  M 178.64 60.70&#10;  Q 172.69 62.52 166.69 64.91&#10;  Q 162.54 66.57 161.39 62.55&#10;  Q 160.75 60.30 162.36 58.89&#10;  Q 172.00 50.46 184.33 45.79"/>
<path stroke="#e2e7eb" stroke-opacity="0.969" d="&#10;  M 176.71 70.42&#10;  Q 177.00 68.92 174.34 69.79&#10;  Q 172.49 70.39 172.43 70.41&#10;  Q 158.97 74.35 148.52 83.27&#10;  Q 138.45 91.87 133.47 104.25&#10;  Q 132.69 106.18 132.00 109.01&#10;  Q 131.09 112.73 131.11 113.92&#10;  Q 131.12 114.96 132.07 115.27"/>
<path stroke="#666b6f" d="&#10;  M 132.07 115.27&#10;  C 130.49 139.32 144.50 157.48 165.45 167.29&#10;  C 181.56 174.84 198.44 173.93 215.06 166.83&#10;  C 233.02 159.16 244.93 141.60 249.90 123.24&#10;  Q 251.52 117.25 251.33 113.19&#10;  C 250.89 103.46 244.98 94.08 238.13 87.40&#10;  Q 219.51 69.24 193.25 68.88&#10;  Q 185.81 68.78 176.71 70.42"/>
<path stroke="#7a7a79" stroke-opacity="0.969" d="&#10;  M 132.07 115.27&#10;  C 134.50 92.02 155.01 75.06 176.71 70.42"/>
<path stroke="#7f7f80" d="&#10;  M 212.59 98.21&#10;  A 14.16 14.16 0.0 0 0 198.43 84.05&#10;  A 14.16 14.16 0.0 0 0 184.27 98.21&#10;  A 14.16 14.16 0.0 0 0 198.43 112.37&#10;  A 14.16 14.16 0.0 0 0 212.59 98.21"/>
<path stroke="#666b6f" d="&#10;  M 144.59 121.73&#10;  Q 145.38 133.86 153.63 143.13&#10;  C 167.85 159.13 189.59 164.04 209.43 155.43&#10;  Q 210.33 155.04 209.37 154.83&#10;  L 202.53 153.29"/>
<path stroke="#7f7f80" d="&#10;  M 202.53 153.29&#10;  C 172.58 144.15 163.19 114.73 171.09 86.72&#10;  A 0.35 0.35 0.0 0 0 170.63 86.30&#10;  C 155.33 92.00 144.57 104.97 144.59 121.73"/>
<path stroke="#e4e9ee" d="&#10;  M 202.53 153.29&#10;  Q 200.46 153.69 198.16 152.88&#10;  Q 195.04 151.77 194.06 151.73&#10;  Q 189.37 151.50 188.78 151.47&#10;  C 180.46 150.98 172.20 147.86 164.48 143.77&#10;  Q 154.50 138.47 148.02 129.24&#10;  Q 146.25 126.72 144.59 121.73"/>
<path stroke="#7f7f80" d="&#10;  M 335.75 112.97&#10;  A 14.13 14.13 0.0 0 0 321.62 98.84&#10;  A 14.13 14.13 0.0 0 0 307.49 112.97&#10;  A 14.13 14.13 0.0 0 0 321.62 127.10&#10;  A 14.13 14.13 0.0 0 0 335.75 112.97"/>
<path stroke="#666b6f" d="&#10;  M 312.70 165.13&#10;  L 303.39 165.31&#10;  Q 302.16 165.34 303.14 166.08&#10;  C 317.58 177.11 336.30 179.74 352.66 171.96&#10;  Q 366.41 165.42 372.88 150.58"/>
<path stroke="#7f7f80" d="&#10;  M 372.88 150.58&#10;  Q 375.10 145.14 374.72 139.69&#10;  Q 374.67 139.08 374.65 135.80&#10;  Q 374.64 133.87 374.11 131.93&#10;  Q 370.76 119.73 361.27 112.89&#10;  Q 360.85 112.58 360.32 112.59&#10;  C 358.95 112.61 358.24 112.72 357.07 112.27&#10;  C 354.73 111.35 348.13 107.28 345.26 110.79&#10;  C 341.86 114.95 338.26 124.22 344.43 127.42&#10;  C 346.02 128.25 349.37 127.58 351.18 127.55&#10;  A 1.62 1.62 0.0 0 1 352.76 129.61&#10;  C 347.22 149.30 333.27 162.39 312.70 165.13"/>
<path stroke="#e4e9ee" d="&#10;  M 372.88 150.58&#10;  Q 371.35 151.44 370.08 152.83&#10;  Q 367.91 155.20 367.65 155.43&#10;  C 355.84 165.91 338.92 169.85 323.57 167.11&#10;  Q 318.52 166.21 312.70 165.13"/>
<path stroke="#7f7f80" d="&#10;  M 247.46 186.69&#10;  C 240.22 185.90 232.27 185.52 225.04 186.07&#10;  A 1.55 1.55 0.0 0 0 223.65 187.24&#10;  L 218.71 207.21&#10;  A 0.53 0.53 0.0 0 0 219.13 207.86&#10;  L 243.21 212.29&#10;  A 1.11 1.11 0.0 0 0 244.51 211.34&#10;  L 247.74 187.04&#10;  A 0.31 0.31 0.0 0 0 247.46 186.69"/>
<path stroke="#7f7f80" d="&#10;  M 207.32 204.56&#10;  L 211.44 187.90&#10;  A 0.57 0.57 0.0 0 0 210.86 187.19&#10;  Q 199.69 187.76 189.59 193.34&#10;  Q 188.00 194.23 187.18 195.82&#10;  A 2.00 1.99 24.8 0 0 188.19 198.56&#10;  Q 197.26 202.35 206.90 204.81&#10;  A 0.35 0.34 -75.0 0 0 207.32 204.56"/>
<path stroke="#7f7f80" d="&#10;  M 259.16 189.31&#10;  L 255.96 213.47&#10;  A 0.38 0.38 0.0 0 0 256.32 213.90&#10;  L 281.22 215.04&#10;  Q 282.18 215.09 282.21 214.12&#10;  L 282.65 194.38&#10;  A 0.65 0.63 9.9 0 0 282.20 193.76&#10;  Q 272.32 190.51 260.27 188.50&#10;  Q 259.29 188.33 259.16 189.31"/>
<path stroke="#7f7f80" d="&#10;  M 315.85 212.31&#10;  A 0.87 0.87 0.0 0 0 316.36 210.95&#10;  Q 314.76 208.76 311.34 206.38&#10;  Q 305.32 202.19 298.68 199.28&#10;  Q 296.86 198.49 295.80 198.35&#10;  Q 295.32 198.29 295.30 198.76&#10;  L 294.58 214.42&#10;  A 0.22 0.22 0.0 0 0 294.80 214.65&#10;  Q 306.91 214.40 315.85 212.31"/>
<path stroke="#7f7f80" d="&#10;  M 205.10 214.97&#10;  A 0.15 0.14 7.9 0 0 204.99 214.83&#10;  Q 195.51 212.64 187.30 208.95&#10;  Q 186.12 208.42 186.60 209.62&#10;  C 189.76 217.52 197.46 225.16 204.05 230.37&#10;  A 0.21 0.21 0.0 0 0 204.39 230.21&#10;  L 205.10 214.97"/>
<path stroke="#7f7f80" d="&#10;  M 212.96 234.51&#10;  Q 212.87 235.01 213.28 235.31&#10;  Q 214.75 236.36 216.60 237.17&#10;  Q 227.96 242.15 240.34 244.69&#10;  A 0.47 0.47 0.0 0 0 240.90 244.27&#10;  L 242.43 222.91&#10;  A 0.32 0.32 0.0 0 0 242.17 222.57&#10;  L 216.71 217.89&#10;  Q 216.04 217.77 215.91 218.44&#10;  L 212.96 234.51"/>
<path stroke="#7f7f80" d="&#10;  M 312.83 223.34&#10;  L 293.20 225.06&#10;  Q 292.38 225.13 292.18 225.93&#10;  L 288.35 241.42&#10;  Q 288.29 241.65 288.52 241.57&#10;  Q 303.21 236.14 313.07 223.78&#10;  Q 313.46 223.29 312.83 223.34"/>
<path stroke="#7f7f80" d="&#10;  M 253.84 224.96&#10;  L 250.05 245.60&#10;  Q 249.97 245.99 250.37 246.02&#10;  Q 263.79 247.14 276.95 244.96&#10;  A 1.98 1.97 -88.0 0 0 278.56 243.45&#10;  Q 280.51 235.11 281.20 225.63&#10;  A 0.11 0.10 3.2 0 0 281.10 225.53&#10;  L 254.65 224.31&#10;  A 0.79 0.79 0.0 0 0 253.84 224.96"/>
<path stroke="#666b6f" d="&#10;  M 229.86 334.02&#10;  L 230.37 311.33&#10;  Q 230.38 310.73 229.79 310.81&#10;  Q 222.24 311.86 219.96 317.61&#10;  C 216.85 325.44 222.18 332.04 229.37 334.37&#10;  Q 229.85 334.53 229.86 334.02"/>
<path stroke="#666b6f" d="&#10;  M 242.14 354.35&#10;  L 242.32 378.88&#10;  A 0.12 0.12 0.0 0 0 242.44 379.00&#10;  L 242.49 379.00&#10;  A 12.69 12.35 -0.4 0 0 255.09 366.57&#10;  L 255.09 366.49&#10;  A 12.69 12.35 -0.4 0 0 242.31 354.22&#10;  L 242.26 354.22&#10;  A 0.12 0.12 0.0 0 0 242.14 354.35"/>
</g>
<path fill="#010101" d="&#10;  M 159.49 384.04&#10;  Q 158.10 381.87 155.04 377.98&#10;  C 150.34 371.99 146.73 365.48 144.11 358.33&#10;  A 1.66 1.65 -14.1 0 0 142.32 357.26&#10;  Q 97.33 363.80 38.69 371.71&#10;  Q 33.05 372.47 30.38 371.76&#10;  C 22.53 369.70 21.35 363.61 19.97 355.52&#10;  C 18.73 348.22 18.44 343.09 16.83 340.39&#10;  Q 16.56 339.95 16.09 339.76&#10;  C -0.93 333.11 -5.10 308.03 10.85 297.95&#10;  A 1.80 1.79 -20.9 0 0 11.67 296.13&#10;  Q 9.98 286.04 9.66 283.18&#10;  C 8.70 274.62 12.78 267.93 18.97 262.21&#10;  Q 50.23 233.29 70.38 215.65&#10;  C 76.14 210.60 80.51 207.44 87.70 210.84&#10;  Q 90.64 212.23 93.48 216.09&#10;  Q 95.65 219.03 103.53 230.04&#10;  A 2.01 2.01 0.0 0 0 106.01 230.69&#10;  Q 111.46 228.18 116.75 226.49&#10;  C 122.32 224.70 129.22 227.41 130.54 233.54&#10;  Q 132.49 242.60 134.96 251.83&#10;  A 1.18 1.17 76.7 0 0 136.33 252.68&#10;  Q 143.85 251.13 152.24 251.23&#10;  C 160.87 251.32 165.87 256.97 166.92 265.12&#10;  A 0.97 0.96 67.6 0 0 168.46 265.77&#10;  L 179.28 257.55&#10;  A 0.68 0.68 0.0 0 0 179.21 256.42&#10;  Q 170.85 251.60 165.67 248.18&#10;  Q 134.16 227.40 116.96 196.90&#10;  Q 112.84 189.59 110.65 182.44&#10;  A 2.08 2.07 0.3 0 0 109.31 181.09&#10;  Q 97.69 177.35 87.06 171.22&#10;  C 71.88 162.46 66.12 147.25 66.98 130.17&#10;  Q 67.73 115.36 71.90 101.43&#10;  Q 75.30 90.07 80.24 83.35&#10;  C 90.66 69.17 107.07 66.14 123.99 67.46&#10;  Q 124.90 67.53 125.54 67.27&#10;  Q 126.40 66.93 126.82 66.33&#10;  Q 145.89 39.60 172.21 24.19&#10;  Q 220.80 -4.25 277.80 2.65&#10;  Q 332.51 9.27 374.39 43.55&#10;  Q 375.11 44.14 375.92 43.69&#10;  Q 382.61 40.00 389.78 38.09&#10;  A 1.71 1.68 -0.7 0 0 390.99 36.87&#10;  C 391.44 35.10 392.39 31.18 393.49 29.12&#10;  Q 400.59 15.80 415.98 17.69&#10;  C 422.40 18.47 428.76 23.31 431.66 29.13&#10;  C 436.59 39.03 432.10 51.30 422.31 56.63&#10;  C 414.18 61.05 405.14 59.90 398.18 53.59&#10;  C 397.08 52.59 395.87 52.04 394.42 52.67&#10;  Q 393.85 52.91 387.75 55.23&#10;  A 1.00 1.00 0.0 0 0 387.35 56.82&#10;  Q 402.66 74.54 411.18 96.05&#10;  Q 411.36 96.52 412.17 97.17&#10;  Q 412.68 97.58 413.48 97.76&#10;  C 427.74 101.00 445.15 106.44 452.88 119.99&#10;  Q 457.48 128.04 458.45 139.52&#10;  C 459.59 153.09 458.07 167.28 454.01 180.29&#10;  Q 451.70 187.68 448.21 193.46&#10;  C 441.88 203.97 430.26 210.02 418.25 211.20&#10;  Q 412.18 211.80 403.10 211.44&#10;  Q 401.90 211.39 401.09 212.65&#10;  Q 385.57 236.88 357.93 252.90&#10;  Q 339.91 263.35 321.25 270.33&#10;  A 0.86 0.85 -33.5 0 0 320.96 271.75&#10;  Q 327.85 278.30 333.03 286.31&#10;  A 1.73 1.72 63.5 0 0 335.08 287.00&#10;  Q 348.18 282.24 361.57 280.40&#10;  C 366.24 279.77 370.47 279.85 374.66 279.32&#10;  Q 376.61 279.07 379.90 279.03&#10;  Q 396.85 278.80 413.80 282.29&#10;  Q 427.58 285.12 439.34 291.18&#10;  Q 442.66 292.89 447.56 296.95&#10;  C 455.02 303.12 458.32 311.40 453.38 320.44&#10;  C 447.76 330.74 432.64 333.42 421.83 332.91&#10;  Q 403.29 332.03 384.89 326.96&#10;  Q 369.63 322.74 346.94 315.62&#10;  A 0.66 0.66 0.0 0 0 346.09 316.37&#10;  Q 350.50 341.38 339.40 364.36&#10;  A 1.71 1.45 53.3 0 0 339.33 365.50&#10;  Q 339.50 366.09 340.51 365.91&#10;  Q 353.40 363.60 370.51 362.80&#10;  Q 401.66 361.35 433.37 370.51&#10;  Q 438.85 372.09 443.70 374.61&#10;  C 447.16 376.40 445.91 380.33 444.85 383.33&#10;  Q 422.94 445.69 377.14 491.14&#10;  C 340.67 527.33 293.03 551.84 241.82 556.74&#10;  Q 193.95 561.31 147.24 545.84&#10;  Q 103.29 531.27 69.43 502.17&#10;  Q 27.05 465.73 2.45 414.90&#10;  Q 0.15 410.15 4.05 406.81&#10;  Q 7.05 404.25 12.81 401.24&#10;  Q 52.09 380.71 95.77 379.50&#10;  C 107.41 379.17 121.10 379.12 133.35 380.87&#10;  Q 145.62 382.63 158.41 385.57&#10;  Q 160.82 386.13 159.49 384.04&#10;  Z&#10;  M 118.99 120.75&#10;  Q 115.11 143.08 119.95 164.98&#10;  Q 127.68 197.14 152.95 220.55&#10;  C 177.49 243.27 208.51 259.38 241.99 264.03&#10;  Q 262.00 266.80 279.00 265.52&#10;  C 305.33 263.53 331.78 253.28 354.32 239.30&#10;  Q 373.62 227.34 386.66 209.90&#10;  Q 393.80 200.37 396.97 187.74&#10;  C 402.52 165.62 406.10 145.31 404.14 124.37&#10;  Q 403.25 114.92 400.74 107.26&#10;  C 394.09 86.90 382.64 69.15 365.70 54.80&#10;  Q 357.56 47.91 348.57 42.64&#10;  Q 345.97 39.98 340.96 37.54&#10;  C 318.77 24.28 292.31 17.44 266.61 15.66&#10;  Q 212.03 11.87 167.92 43.65&#10;  Q 161.17 48.52 155.39 54.39&#10;  C 137.21 72.83 124.20 94.82 118.99 120.75&#10;  Z&#10;  M 419.37 38.44&#10;  A 6.93 6.93 0.0 0 0 412.44 31.51&#10;  A 6.93 6.93 0.0 0 0 405.51 38.44&#10;  A 6.93 6.93 0.0 0 0 412.44 45.37&#10;  A 6.93 6.93 0.0 0 0 419.37 38.44&#10;  Z&#10;  M 85.39 105.21&#10;  L 82.78 114.51&#10;  Q 81.27 120.99 80.96 127.63&#10;  C 80.38 139.89 81.14 152.19 93.51 158.67&#10;  Q 101.65 162.94 105.26 164.59&#10;  A 0.33 0.32 -83.4 0 0 105.71 164.23&#10;  Q 103.62 152.51 103.37 140.56&#10;  Q 103.13 112.61 115.19 87.77&#10;  L 117.75 82.64&#10;  A 0.47 0.47 0.0 0 0 117.37 81.96&#10;  C 100.41 80.85 89.60 89.16 85.39 105.21&#10;  Z&#10;  M 408.30 196.49&#10;  A 0.38 0.38 0.0 0 0 408.65 196.99&#10;  C 421.61 197.24 433.84 194.84 439.13 181.39&#10;  Q 447.05 161.22 444.56 138.96&#10;  C 443.70 131.23 441.14 124.47 434.19 120.32&#10;  Q 426.60 115.79 416.78 113.81&#10;  Q 416.28 113.71 416.37 114.20&#10;  Q 419.03 128.92 418.14 144.74&#10;  Q 416.64 171.43 408.30 196.49&#10;  Z&#10;  M 73.95 245.36&#10;  L 91.31 237.44&#10;  Q 91.80 237.22 91.50 236.77&#10;  L 85.79 228.40&#10;  Q 84.26 226.12 82.20 224.52&#10;  A 0.52 0.52 0.0 0 0 81.54 224.54&#10;  L 43.62 258.15&#10;  Q 40.95 260.51 44.19 259.02&#10;  L 73.95 245.36&#10;  Z&#10;  M 65.83 262.26&#10;  Q 65.05 262.59 65.88 262.47&#10;  L 120.10 254.96&#10;  A 0.20 0.20 0.0 0 0 120.27 254.73&#10;  L 118.45 241.59&#10;  A 1.18 1.18 0.0 0 0 116.82 240.66&#10;  L 65.83 262.26&#10;  Z&#10;  M 202.49 400.98&#10;  L 216.18 408.53&#10;  Q 227.23 414.66 236.86 422.60&#10;  A 0.92 0.91 -47.2 0 0 238.08 422.55&#10;  L 248.36 412.52&#10;  L 263.27 400.00&#10;  Q 274.67 391.90 287.77 384.55&#10;  L 293.23 381.87&#10;  Q 305.45 375.60 318.40 371.01&#10;  L 320.90 370.21&#10;  Q 321.39 370.05 321.64 369.60&#10;  Q 326.92 360.24 329.27 354.01&#10;  Q 339.22 327.51 325.81 301.90&#10;  Q 317.52 286.08 303.99 276.17&#10;  Q 303.51 275.82 302.94 275.95&#10;  Q 284.72 279.99 265.91 279.85&#10;  Q 228.24 280.19 193.88 264.76&#10;  A 0.83 0.83 0.0 0 0 193.04 264.86&#10;  L 178.89 275.60&#10;  Q 178.34 276.02 178.91 276.42&#10;  Q 189.22 283.76 189.96 296.57&#10;  Q 190.86 312.11 178.62 320.65&#10;  Q 178.16 320.97 178.24 321.53&#10;  Q 179.21 328.26 180.04 334.84&#10;  C 181.15 343.70 174.35 351.99 165.51 353.27&#10;  Q 163.24 353.60 158.27 354.88&#10;  Q 157.77 355.01 158.00 355.47&#10;  Q 166.36 372.33 179.94 386.10&#10;  Q 184.19 390.40 188.11 394.45&#10;  Q 188.84 395.19 189.79 395.60&#10;  L 202.49 400.98&#10;  Z&#10;  M 149.30 265.31&#10;  Q 103.86 271.13 58.52 277.10&#10;  Q 34.93 280.21 26.63 281.66&#10;  Q 24.69 282.00 23.62 282.30&#10;  Q 23.18 282.43 23.24 282.87&#10;  L 24.87 294.60&#10;  A 0.51 0.51 0.0 0 0 25.45 295.04&#10;  Q 33.19 294.00 38.42 293.88&#10;  C 45.22 293.72 51.24 298.08 54.36 304.03&#10;  Q 55.72 306.62 56.16 311.86&#10;  C 56.85 320.01 58.68 325.87 52.79 332.55&#10;  C 46.75 339.41 40.33 339.01 32.03 339.99&#10;  Q 31.49 340.05 31.57 340.58&#10;  L 33.19 351.32&#10;  Q 33.41 354.92 34.67 357.72&#10;  A 0.94 0.94 0.0 0 0 35.66 358.26&#10;  L 163.80 340.50&#10;  A 2.88 2.88 0.0 0 0 166.26 337.25&#10;  L 164.46 324.23&#10;  Q 164.35 323.42 163.53 323.51&#10;  Q 160.64 323.84 150.76 325.10&#10;  Q 144.85 325.86 139.26 321.59&#10;  Q 134.25 317.10 132.70 308.87&#10;  Q 130.95 299.63 131.50 296.51&#10;  C 132.68 289.82 136.96 284.32 143.63 282.69&#10;  Q 145.63 282.20 147.49 281.83&#10;  L 156.13 280.67&#10;  A 0.59 0.59 0.0 0 0 156.63 279.98&#10;  Q 155.45 273.60 153.81 266.95&#10;  Q 153.19 264.47 149.30 265.31&#10;  Z&#10;  M 146.07 305.80&#10;  Q 146.52 309.32 149.58 310.55&#10;  Q 151.37 311.27 154.96 310.82&#10;  Q 162.03 309.92 169.12 309.11&#10;  C 174.19 308.54 176.69 301.71 175.96 297.51&#10;  Q 175.02 292.97 171.56 290.20&#10;  A 0.46 0.46 0.0 0 0 170.93 290.26&#10;  Q 167.84 293.85 163.01 294.31&#10;  Q 154.42 295.14 151.31 295.70&#10;  C 145.03 296.82 144.38 300.15 146.07 305.80&#10;  Z&#10;  M 372.59 299.78&#10;  L 372.55 304.49&#10;  L 372.80 308.71&#10;  Q 372.84 309.34 373.45 309.49&#10;  L 385.95 312.59&#10;  Q 386.31 312.68 386.30 312.30&#10;  L 386.18 307.89&#10;  L 387.08 299.48&#10;  L 388.34 294.71&#10;  Q 388.51 294.08 387.85 294.06&#10;  L 373.64 293.75&#10;  A 0.77 0.77 0.0 0 0 372.85 294.49&#10;  L 372.59 299.78&#10;  Z&#10;  M 357.30 300.09&#10;  C 357.40 302.39 358.03 304.32 360.43 305.10&#10;  Q 363.46 306.09 366.41 307.03&#10;  A 0.52 0.51 -82.0 0 0 367.08 306.52&#10;  L 366.94 300.96&#10;  L 367.06 294.99&#10;  Q 367.08 294.36 366.45 294.45&#10;  L 357.17 295.73&#10;  Q 356.60 295.81 356.56 296.39&#10;  Q 356.44 298.18 357.30 300.09&#10;  Z&#10;  M 393.06 309.20&#10;  Q 392.94 309.02 392.82 308.85&#10;  L 393.43 313.26&#10;  Q 393.51 314.52 394.50 314.80&#10;  Q 398.25 315.87 405.38 316.37&#10;  Q 407.43 317.58 411.88 317.79&#10;  A 0.76 0.76 0.0 0 0 412.65 317.23&#10;  L 413.51 314.12&#10;  L 417.84 304.07&#10;  L 420.37 300.03&#10;  A 0.41 0.41 0.0 0 0 420.16 299.42&#10;  Q 408.39 295.28 396.16 294.86&#10;  Q 395.63 294.84 395.41 295.33&#10;  Q 392.50 301.71 393.06 309.20&#10;  Z&#10;  M 351.13 297.62&#10;  A 0.31 0.31 0.0 0 0 350.74 297.36&#10;  L 344.29 299.21&#10;  Q 342.83 299.63 344.28 300.09&#10;  L 352.09 302.56&#10;  Q 352.70 302.76 352.42 302.18&#10;  Q 351.37 300.07 351.13 297.62&#10;  Z&#10;  M 427.31 302.83&#10;  C 423.94 307.88 421.54 311.53 421.34 317.56&#10;  A 0.83 0.82 -87.1 0 0 422.10 318.41&#10;  C 426.98 318.80 435.96 318.44 439.50 315.11&#10;  C 441.11 313.60 441.99 311.58 440.20 309.80&#10;  Q 435.52 305.14 429.01 302.33&#10;  A 1.40 1.39 28.5 0 0 427.31 302.83&#10;  Z&#10;  M 14.52 318.61&#10;  Q 16.71 327.84 26.70 326.18&#10;  Q 31.94 325.31 37.26 324.57&#10;  Q 40.09 324.17 41.25 322.75&#10;  Q 42.80 320.85 42.52 318.08&#10;  C 42.63 314.90 41.52 308.88 37.66 308.86&#10;  Q 33.34 308.84 21.18 310.37&#10;  Q 17.24 310.87 15.90 312.39&#10;  Q 13.92 314.63 14.52 318.61&#10;  Z&#10;  M 267.75 414.50&#10;  L 261.57 419.90&#10;  Q 254.42 425.02 248.45 431.69&#10;  A 0.64 0.64 0.0 0 0 248.49 432.59&#10;  Q 266.44 449.92 280.68 470.36&#10;  A 0.37 0.37 0.0 0 0 281.27 470.40&#10;  Q 291.42 458.78 303.07 448.60&#10;  C 323.56 431.13 348.05 416.68 374.08 410.12&#10;  Q 380.40 408.53 386.27 408.18&#10;  Q 387.87 408.08 388.47 409.02&#10;  A 0.78 0.78 0.0 0 1 388.04 410.18&#10;  Q 381.30 412.27 375.22 414.97&#10;  C 353.96 424.43 334.83 437.49 317.27 452.66&#10;  Q 306.37 462.64 295.91 473.90&#10;  Q 292.09 478.01 288.92 482.60&#10;  Q 288.45 483.29 288.85 484.03&#10;  Q 299.90 504.33 303.75 525.91&#10;  A 0.24 0.24 0.0 0 0 304.09 526.09&#10;  Q 318.40 520.02 330.62 511.85&#10;  C 355.08 495.50 376.77 475.16 393.97 451.72&#10;  Q 410.37 429.37 421.41 405.86&#10;  L 430.35 384.95&#10;  Q 430.74 384.04 429.78 383.82&#10;  L 409.74 379.09&#10;  Q 375.81 373.06 342.25 379.81&#10;  C 328.20 382.64 314.05 386.64 301.90 392.88&#10;  C 290.44 398.77 278.19 405.70 267.75 414.50&#10;  Z&#10;  M 20.21 413.68&#10;  Q 19.17 413.53 18.13 414.61&#10;  Q 17.78 414.98 17.92 415.47&#10;  Q 18.39 417.20 19.27 418.72&#10;  Q 22.48 424.29 25.73 429.80&#10;  Q 29.26 436.02 35.67 445.09&#10;  C 59.64 479.03 91.18 507.19 128.78 524.32&#10;  Q 185.29 550.06 246.52 543.02&#10;  C 255.97 541.93 265.19 539.92 274.05 537.17&#10;  A 0.28 0.28 0.0 0 0 274.14 536.68&#10;  C 251.99 519.43 231.28 502.96 207.80 489.24&#10;  Q 186.36 475.57 160.89 464.36&#10;  Q 125.02 448.57 90.30 440.84&#10;  Q 89.71 440.70 89.52 440.40&#10;  Q 89.28 440.00 89.41 439.57&#10;  A 0.87 0.86 8.5 0 1 90.27 438.94&#10;  C 127.16 440.00 164.55 451.67 197.69 468.84&#10;  Q 205.21 472.74 216.16 479.11&#10;  Q 241.00 494.22 255.27 504.97&#10;  Q 273.79 518.92 289.46 531.85&#10;  A 0.87 0.87 0.0 0 0 290.85 531.39&#10;  Q 291.04 530.65 290.79 529.48&#10;  Q 281.02 483.49 247.24 450.91&#10;  L 241.00 444.95&#10;  L 235.76 440.11&#10;  L 228.43 434.26&#10;  Q 217.07 424.99 205.07 418.42&#10;  Q 168.36 398.32 126.27 393.87&#10;  C 102.96 391.68 79.47 393.51 56.75 398.95&#10;  C 47.75 401.11 38.55 404.65 30.36 408.09&#10;  Q 25.07 410.31 20.21 413.68&#10;  Z"/>
<path fill="#fdfdfe" d="&#10;  M 340.96 37.54&#10;  Q 341.24 38.06 341.12 38.14&#10;  A 0.86 0.86 0.0 0 1 340.17 38.15&#10;  Q 333.32 33.76 325.74 31.57&#10;  Q 321.44 30.33 310.31 28.72&#10;  Q 271.66 23.13 233.24 28.43&#10;  Q 201.96 32.74 175.39 43.17&#10;  Q 168.67 45.81 167.22 46.30&#10;  C 165.91 46.75 164.20 47.62 163.37 48.33&#10;  Q 153.39 56.82 144.06 68.85&#10;  Q 126.27 91.78 120.24 119.55&#10;  Q 119.77 121.72 118.99 120.75&#10;  C 124.20 94.82 137.21 72.83 155.39 54.39&#10;  Q 161.17 48.52 167.92 43.65&#10;  Q 212.03 11.87 266.61 15.66&#10;  C 292.31 17.44 318.77 24.28 340.96 37.54&#10;  Z"/>
<path fill="#cad5dd" d="&#10;  M 340.96 37.54&#10;  Q 345.97 39.98 348.57 42.64&#10;  Q 360.37 55.37 366.53 69.95&#10;  Q 367.23 71.62 368.65 73.63&#10;  Q 369.95 75.46 370.74 77.38&#10;  Q 363.30 68.87 354.34 64.13&#10;  Q 340.13 56.61 323.09 55.76&#10;  C 316.84 55.45 311.90 55.44 306.57 56.77&#10;  A 1.37 1.36 84.6 0 0 305.53 58.03&#10;  L 305.07 68.07&#10;  A 1.73 1.72 89.9 0 0 306.87 69.87&#10;  Q 312.34 69.60 318.02 69.70&#10;  C 337.10 70.04 353.49 77.25 368.83 89.20&#10;  A 1.07 1.06 -29.3 0 0 369.60 89.41&#10;  Q 369.98 89.37 370.22 89.22&#10;  Q 370.45 89.08 370.62 89.16&#10;  Q 370.79 89.24 370.82 89.45&#10;  Q 370.84 89.68 370.69 89.79&#10;  Q 370.36 90.06 370.45 90.48&#10;  Q 371.75 96.34 370.92 102.19&#10;  Q 342.07 76.91 304.51 86.09&#10;  Q 304.68 85.77 304.60 85.50&#10;  Q 304.44 84.98 303.92 85.14&#10;  C 288.70 89.93 274.60 99.37 269.36 114.99&#10;  Q 269.25 115.31 269.41 115.58&#10;  Q 269.67 116.00 270.02 115.65&#10;  Q 270.27 115.39 270.43 114.93&#10;  C 266.07 137.52 276.66 162.52 294.80 176.10&#10;  C 316.45 192.32 345.92 194.08 368.03 177.48&#10;  Q 368.08 179.07 365.53 180.30&#10;  Q 364.72 180.69 363.73 182.56&#10;  C 361.43 186.89 358.08 190.51 353.61 194.85&#10;  Q 342.07 206.07 328.54 212.47&#10;  C 327.91 203.96 322.82 197.77 315.91 193.41&#10;  C 305.21 186.65 294.09 183.13 281.14 179.58&#10;  C 255.03 172.42 228.22 169.81 201.55 175.05&#10;  C 190.67 177.19 177.55 181.35 174.68 193.23&#10;  Q 170.24 211.60 183.48 228.19&#10;  Q 168.60 223.20 154.44 212.30&#10;  Q 141.68 202.47 132.75 189.01&#10;  Q 129.58 184.25 126.38 179.50&#10;  Q 124.57 176.82 123.22 173.08&#10;  Q 121.73 168.97 119.95 164.98&#10;  Q 115.11 143.08 118.99 120.75&#10;  Q 119.77 121.72 120.24 119.55&#10;  Q 126.27 91.78 144.06 68.85&#10;  Q 153.39 56.82 163.37 48.33&#10;  C 164.20 47.62 165.91 46.75 167.22 46.30&#10;  Q 168.67 45.81 175.39 43.17&#10;  Q 201.96 32.74 233.24 28.43&#10;  Q 271.66 23.13 310.31 28.72&#10;  Q 321.44 30.33 325.74 31.57&#10;  Q 333.32 33.76 340.17 38.15&#10;  A 0.86 0.86 0.0 0 0 341.12 38.14&#10;  Q 341.24 38.06 340.96 37.54&#10;  Z&#10;  M 184.33 45.79&#10;  Q 179.97 45.90 175.58 48.55&#10;  Q 171.04 51.28 163.55 56.56&#10;  Q 158.41 60.17 161.47 64.76&#10;  C 163.04 67.13 165.57 66.85 167.81 65.81&#10;  Q 174.15 62.89 180.08 61.26&#10;  Q 180.52 61.14 180.23 60.79&#10;  Q 179.96 60.46 178.64 60.70&#10;  Q 197.63 54.37 216.72 59.11&#10;  Q 224.08 60.94 231.26 63.47&#10;  A 0.82 0.82 0.0 0 0 232.28 63.03&#10;  Q 234.21 58.66 235.04 53.77&#10;  Q 235.28 52.32 234.94 51.77&#10;  C 233.33 49.19 226.86 46.96 223.84 46.12&#10;  Q 204.02 40.59 184.33 45.79&#10;  Z&#10;  M 176.71 70.42&#10;  Q 177.00 68.92 174.34 69.79&#10;  Q 172.49 70.39 172.43 70.41&#10;  Q 158.97 74.35 148.52 83.27&#10;  Q 138.45 91.87 133.47 104.25&#10;  Q 132.69 106.18 132.00 109.01&#10;  Q 131.09 112.73 131.11 113.92&#10;  Q 131.12 114.96 132.07 115.27&#10;  C 130.49 139.32 144.50 157.48 165.45 167.29&#10;  C 181.56 174.84 198.44 173.93 215.06 166.83&#10;  C 233.02 159.16 244.93 141.60 249.90 123.24&#10;  Q 251.52 117.25 251.33 113.19&#10;  C 250.89 103.46 244.98 94.08 238.13 87.40&#10;  Q 219.51 69.24 193.25 68.88&#10;  Q 185.81 68.78 176.71 70.42&#10;  Z"/>
<circle fill="#cad5dd" cx="412.44" cy="38.44" r="6.93"/>
<path fill="#90a0aa" d="&#10;  M 348.57 42.64&#10;  Q 357.56 47.91 365.70 54.80&#10;  C 382.64 69.15 394.09 86.90 400.74 107.26&#10;  Q 403.25 114.92 404.14 124.37&#10;  C 406.10 145.31 402.52 165.62 396.97 187.74&#10;  Q 393.80 200.37 386.66 209.90&#10;  Q 373.62 227.34 354.32 239.30&#10;  C 331.78 253.28 305.33 263.53 279.00 265.52&#10;  Q 262.00 266.80 241.99 264.03&#10;  C 208.51 259.38 177.49 243.27 152.95 220.55&#10;  Q 127.68 197.14 119.95 164.98&#10;  Q 121.73 168.97 123.22 173.08&#10;  Q 124.57 176.82 126.38 179.50&#10;  Q 129.58 184.25 132.75 189.01&#10;  Q 141.68 202.47 154.44 212.30&#10;  Q 168.60 223.20 183.48 228.19&#10;  Q 191.74 237.96 203.20 245.05&#10;  Q 221.27 256.21 244.00 258.73&#10;  C 268.97 261.50 291.52 258.66 311.90 243.18&#10;  Q 318.68 238.04 323.42 229.92&#10;  Q 328.27 221.63 328.54 212.47&#10;  Q 342.07 206.07 353.61 194.85&#10;  C 358.08 190.51 361.43 186.89 363.73 182.56&#10;  Q 364.72 180.69 365.53 180.30&#10;  Q 368.08 179.07 368.03 177.48&#10;  C 384.41 164.68 393.10 142.72 385.10 122.92&#10;  Q 380.27 110.96 370.92 102.19&#10;  Q 371.75 96.34 370.45 90.48&#10;  Q 370.36 90.06 370.69 89.79&#10;  Q 370.84 89.68 370.82 89.45&#10;  Q 370.79 89.24 370.62 89.16&#10;  Q 370.45 89.08 370.22 89.22&#10;  C 372.59 87.20 374.59 84.29 373.04 81.71&#10;  Q 371.67 79.44 370.74 77.38&#10;  Q 369.95 75.46 368.65 73.63&#10;  Q 367.23 71.62 366.53 69.95&#10;  Q 360.37 55.37 348.57 42.64&#10;  Z"/>
<path fill="#010101" d="&#10;  M 178.64 60.70&#10;  Q 172.69 62.52 166.69 64.91&#10;  Q 162.54 66.57 161.39 62.55&#10;  Q 160.75 60.30 162.36 58.89&#10;  Q 172.00 50.46 184.33 45.79&#10;  Q 204.02 40.59 223.84 46.12&#10;  C 226.86 46.96 233.33 49.19 234.94 51.77&#10;  Q 235.28 52.32 235.04 53.77&#10;  Q 234.21 58.66 232.28 63.03&#10;  A 0.82 0.82 0.0 0 1 231.26 63.47&#10;  Q 224.08 60.94 216.72 59.11&#10;  Q 197.63 54.37 178.64 60.70&#10;  Z"/>
<path fill="#fdfdfe" d="&#10;  M 184.33 45.79&#10;  Q 172.00 50.46 162.36 58.89&#10;  Q 160.75 60.30 161.39 62.55&#10;  Q 162.54 66.57 166.69 64.91&#10;  Q 172.69 62.52 178.64 60.70&#10;  Q 179.96 60.46 180.23 60.79&#10;  Q 180.52 61.14 180.08 61.26&#10;  Q 174.15 62.89 167.81 65.81&#10;  C 165.57 66.85 163.04 67.13 161.47 64.76&#10;  Q 158.41 60.17 163.55 56.56&#10;  Q 171.04 51.28 175.58 48.55&#10;  Q 179.97 45.90 184.33 45.79&#10;  Z"/>
<path fill="#010101" d="&#10;  M 370.74 77.38&#10;  Q 371.67 79.44 373.04 81.71&#10;  C 374.59 84.29 372.59 87.20 370.22 89.22&#10;  Q 369.98 89.37 369.60 89.41&#10;  A 1.07 1.06 -29.3 0 1 368.83 89.20&#10;  C 353.49 77.25 337.10 70.04 318.02 69.70&#10;  Q 312.34 69.60 306.87 69.87&#10;  A 1.73 1.72 89.9 0 1 305.07 68.07&#10;  L 305.53 58.03&#10;  A 1.37 1.36 84.6 0 1 306.57 56.77&#10;  C 311.90 55.44 316.84 55.45 323.09 55.76&#10;  Q 340.13 56.61 354.34 64.13&#10;  Q 363.30 68.87 370.74 77.38&#10;  Z"/>
<path fill="#010101" d="&#10;  M 132.07 115.27&#10;  C 134.50 92.02 155.01 75.06 176.71 70.42&#10;  Q 185.81 68.78 193.25 68.88&#10;  Q 219.51 69.24 238.13 87.40&#10;  C 244.98 94.08 250.89 103.46 251.33 113.19&#10;  Q 251.52 117.25 249.90 123.24&#10;  C 244.93 141.60 233.02 159.16 215.06 166.83&#10;  C 198.44 173.93 181.56 174.84 165.45 167.29&#10;  C 144.50 157.48 130.49 139.32 132.07 115.27&#10;  Z&#10;  M 212.59 98.21&#10;  A 14.16 14.16 0.0 0 0 198.43 84.05&#10;  A 14.16 14.16 0.0 0 0 184.27 98.21&#10;  A 14.16 14.16 0.0 0 0 198.43 112.37&#10;  A 14.16 14.16 0.0 0 0 212.59 98.21&#10;  Z&#10;  M 144.59 121.73&#10;  Q 145.38 133.86 153.63 143.13&#10;  C 167.85 159.13 189.59 164.04 209.43 155.43&#10;  Q 210.33 155.04 209.37 154.83&#10;  L 202.53 153.29&#10;  C 172.58 144.15 163.19 114.73 171.09 86.72&#10;  A 0.35 0.35 0.0 0 0 170.63 86.30&#10;  C 155.33 92.00 144.57 104.97 144.59 121.73&#10;  Z"/>
<path fill="#fcfbfa" fill-opacity="0.933" d="&#10;  M 176.71 70.42&#10;  C 155.01 75.06 134.50 92.02 132.07 115.27&#10;  Q 131.12 114.96 131.11 113.92&#10;  Q 131.09 112.73 132.00 109.01&#10;  Q 132.69 106.18 133.47 104.25&#10;  Q 138.45 91.87 148.52 83.27&#10;  Q 158.97 74.35 172.43 70.41&#10;  Q 172.49 70.39 174.34 69.79&#10;  Q 177.00 68.92 176.71 70.42&#10;  Z"/>
<path fill="#fdfdfe" d="&#10;  M 115.19 87.77&#10;  Q 102.79 90.57 94.34 100.34&#10;  Q 92.97 101.92 89.44 105.93&#10;  Q 88.00 107.57 86.00 107.71&#10;  Q 85.48 107.74 85.46 107.22&#10;  L 85.39 105.21&#10;  C 89.60 89.16 100.41 80.85 117.37 81.96&#10;  A 0.47 0.47 0.0 0 1 117.75 82.64&#10;  L 115.19 87.77&#10;  Z"/>
<path fill="#010101" d="&#10;  M 370.92 102.19&#10;  Q 380.27 110.96 385.10 122.92&#10;  C 393.10 142.72 384.41 164.68 368.03 177.48&#10;  C 345.92 194.08 316.45 192.32 294.80 176.10&#10;  C 276.66 162.52 266.07 137.52 270.43 114.93&#10;  C 275.86 99.64 289.47 90.52 304.51 86.09&#10;  Q 342.07 76.91 370.92 102.19&#10;  Z&#10;  M 335.75 112.97&#10;  A 14.13 14.13 0.0 0 0 321.62 98.84&#10;  A 14.13 14.13 0.0 0 0 307.49 112.97&#10;  A 14.13 14.13 0.0 0 0 321.62 127.10&#10;  A 14.13 14.13 0.0 0 0 335.75 112.97&#10;  Z&#10;  M 312.70 165.13&#10;  L 303.39 165.31&#10;  Q 302.16 165.34 303.14 166.08&#10;  C 317.58 177.11 336.30 179.74 352.66 171.96&#10;  Q 366.41 165.42 372.88 150.58&#10;  Q 375.10 145.14 374.72 139.69&#10;  Q 374.67 139.08 374.65 135.80&#10;  Q 374.64 133.87 374.11 131.93&#10;  Q 370.76 119.73 361.27 112.89&#10;  Q 360.85 112.58 360.32 112.59&#10;  C 358.95 112.61 358.24 112.72 357.07 112.27&#10;  C 354.73 111.35 348.13 107.28 345.26 110.79&#10;  C 341.86 114.95 338.26 124.22 344.43 127.42&#10;  C 346.02 128.25 349.37 127.58 351.18 127.55&#10;  A 1.62 1.62 0.0 0 1 352.76 129.61&#10;  C 347.22 149.30 333.27 162.39 312.70 165.13&#10;  Z"/>
<circle fill="#fdfdfe" cx="198.43" cy="98.21" r="14.16"/>
<path fill="#fcfbfa" fill-opacity="0.933" d="&#10;  M 304.51 86.09&#10;  C 289.47 90.52 275.86 99.64 270.43 114.93&#10;  Q 270.27 115.39 270.02 115.65&#10;  Q 269.67 116.00 269.41 115.58&#10;  Q 269.25 115.31 269.36 114.99&#10;  C 274.60 99.37 288.70 89.93 303.92 85.14&#10;  Q 304.44 84.98 304.60 85.50&#10;  Q 304.68 85.77 304.51 86.09&#10;  Z"/>
<path fill="#fdfdfe" d="&#10;  M 202.53 153.29&#10;  Q 200.46 153.69 198.16 152.88&#10;  Q 195.04 151.77 194.06 151.73&#10;  Q 189.37 151.50 188.78 151.47&#10;  C 180.46 150.98 172.20 147.86 164.48 143.77&#10;  Q 154.50 138.47 148.02 129.24&#10;  Q 146.25 126.72 144.59 121.73&#10;  C 144.57 104.97 155.33 92.00 170.63 86.30&#10;  A 0.35 0.35 0.0 0 1 171.09 86.72&#10;  C 163.19 114.73 172.58 144.15 202.53 153.29&#10;  Z"/>
<path fill="#cad5dd" d="&#10;  M 115.19 87.77&#10;  Q 103.13 112.61 103.37 140.56&#10;  C 97.66 140.13 93.18 140.36 88.61 135.81&#10;  Q 85.04 132.27 83.22 126.50&#10;  Q 82.52 124.25 82.66 120.51&#10;  Q 82.78 117.52 82.78 114.51&#10;  L 85.39 105.21&#10;  L 85.46 107.22&#10;  Q 85.48 107.74 86.00 107.71&#10;  Q 88.00 107.57 89.44 105.93&#10;  Q 92.97 101.92 94.34 100.34&#10;  Q 102.79 90.57 115.19 87.77&#10;  Z"/>
<circle fill="#fdfdfe" cx="321.62" cy="112.97" r="14.13"/>
<path fill="#fdfdfe" d="&#10;  M 372.88 150.58&#10;  Q 371.35 151.44 370.08 152.83&#10;  Q 367.91 155.20 367.65 155.43&#10;  C 355.84 165.91 338.92 169.85 323.57 167.11&#10;  Q 318.52 166.21 312.70 165.13&#10;  C 333.27 162.39 347.22 149.30 352.76 129.61&#10;  A 1.62 1.62 0.0 0 0 351.18 127.55&#10;  C 349.37 127.58 346.02 128.25 344.43 127.42&#10;  C 338.26 124.22 341.86 114.95 345.26 110.79&#10;  C 348.13 107.28 354.73 111.35 357.07 112.27&#10;  C 358.24 112.72 358.95 112.61 360.32 112.59&#10;  Q 360.85 112.58 361.27 112.89&#10;  Q 370.76 119.73 374.11 131.93&#10;  Q 374.64 133.87 374.65 135.80&#10;  Q 374.67 139.08 374.72 139.69&#10;  Q 375.10 145.14 372.88 150.58&#10;  Z"/>
<path fill="#90a0aa" d="&#10;  M 408.30 196.49&#10;  Q 416.64 171.43 418.14 144.74&#10;  Q 419.03 128.92 416.37 114.20&#10;  Q 416.28 113.71 416.78 113.81&#10;  Q 426.60 115.79 434.19 120.32&#10;  C 441.14 124.47 443.70 131.23 444.56 138.96&#10;  Q 447.05 161.22 439.13 181.39&#10;  C 433.84 194.84 421.61 197.24 408.65 196.99&#10;  A 0.38 0.38 0.0 0 1 408.30 196.49&#10;  Z"/>
<path fill="#90a0aa" d="&#10;  M 103.37 140.56&#10;  Q 103.62 152.51 105.71 164.23&#10;  A 0.33 0.32 -83.4 0 1 105.26 164.59&#10;  Q 101.65 162.94 93.51 158.67&#10;  C 81.14 152.19 80.38 139.89 80.96 127.63&#10;  Q 81.27 120.99 82.78 114.51&#10;  Q 82.78 117.52 82.66 120.51&#10;  Q 82.52 124.25 83.22 126.50&#10;  Q 85.04 132.27 88.61 135.81&#10;  C 93.18 140.36 97.66 140.13 103.37 140.56&#10;  Z"/>
<path fill="#cad5dd" d="&#10;  M 144.59 121.73&#10;  Q 146.25 126.72 148.02 129.24&#10;  Q 154.50 138.47 164.48 143.77&#10;  C 172.20 147.86 180.46 150.98 188.78 151.47&#10;  Q 189.37 151.50 194.06 151.73&#10;  Q 195.04 151.77 198.16 152.88&#10;  Q 200.46 153.69 202.53 153.29&#10;  L 209.37 154.83&#10;  Q 210.33 155.04 209.43 155.43&#10;  C 189.59 164.04 167.85 159.13 153.63 143.13&#10;  Q 145.38 133.86 144.59 121.73&#10;  Z"/>
<path fill="#cad5dd" d="&#10;  M 372.88 150.58&#10;  Q 366.41 165.42 352.66 171.96&#10;  C 336.30 179.74 317.58 177.11 303.14 166.08&#10;  Q 302.16 165.34 303.39 165.31&#10;  L 312.70 165.13&#10;  Q 318.52 166.21 323.57 167.11&#10;  C 338.92 169.85 355.84 165.91 367.65 155.43&#10;  Q 367.91 155.20 370.08 152.83&#10;  Q 371.35 151.44 372.88 150.58&#10;  Z"/>
<path fill="#010101" d="&#10;  M 328.54 212.47&#10;  Q 328.27 221.63 323.42 229.92&#10;  Q 318.68 238.04 311.90 243.18&#10;  C 291.52 258.66 268.97 261.50 244.00 258.73&#10;  Q 221.27 256.21 203.20 245.05&#10;  Q 191.74 237.96 183.48 228.19&#10;  Q 170.24 211.60 174.68 193.23&#10;  C 177.55 181.35 190.67 177.19 201.55 175.05&#10;  C 228.22 169.81 255.03 172.42 281.14 179.58&#10;  C 294.09 183.13 305.21 186.65 315.91 193.41&#10;  C 322.82 197.77 327.91 203.96 328.54 212.47&#10;  Z&#10;  M 247.46 186.69&#10;  C 240.22 185.90 232.27 185.52 225.04 186.07&#10;  A 1.55 1.55 0.0 0 0 223.65 187.24&#10;  L 218.71 207.21&#10;  A 0.53 0.53 0.0 0 0 219.13 207.86&#10;  L 243.21 212.29&#10;  A 1.11 1.11 0.0 0 0 244.51 211.34&#10;  L 247.74 187.04&#10;  A 0.31 0.31 0.0 0 0 247.46 186.69&#10;  Z&#10;  M 207.32 204.56&#10;  L 211.44 187.90&#10;  A 0.57 0.57 0.0 0 0 210.86 187.19&#10;  Q 199.69 187.76 189.59 193.34&#10;  Q 188.00 194.23 187.18 195.82&#10;  A 2.00 1.99 24.8 0 0 188.19 198.56&#10;  Q 197.26 202.35 206.90 204.81&#10;  A 0.35 0.34 -75.0 0 0 207.32 204.56&#10;  Z&#10;  M 259.16 189.31&#10;  L 255.96 213.47&#10;  A 0.38 0.38 0.0 0 0 256.32 213.90&#10;  L 281.22 215.04&#10;  Q 282.18 215.09 282.21 214.12&#10;  L 282.65 194.38&#10;  A 0.65 0.63 9.9 0 0 282.20 193.76&#10;  Q 272.32 190.51 260.27 188.50&#10;  Q 259.29 188.33 259.16 189.31&#10;  Z&#10;  M 315.85 212.31&#10;  A 0.87 0.87 0.0 0 0 316.36 210.95&#10;  Q 314.76 208.76 311.34 206.38&#10;  Q 305.32 202.19 298.68 199.28&#10;  Q 296.86 198.49 295.80 198.35&#10;  Q 295.32 198.29 295.30 198.76&#10;  L 294.58 214.42&#10;  A 0.22 0.22 0.0 0 0 294.80 214.65&#10;  Q 306.91 214.40 315.85 212.31&#10;  Z&#10;  M 205.10 214.97&#10;  A 0.15 0.14 7.9 0 0 204.99 214.83&#10;  Q 195.51 212.64 187.30 208.95&#10;  Q 186.12 208.42 186.60 209.62&#10;  C 189.76 217.52 197.46 225.16 204.05 230.37&#10;  A 0.21 0.21 0.0 0 0 204.39 230.21&#10;  L 205.10 214.97&#10;  Z&#10;  M 212.96 234.51&#10;  Q 212.87 235.01 213.28 235.31&#10;  Q 214.75 236.36 216.60 237.17&#10;  Q 227.96 242.15 240.34 244.69&#10;  A 0.47 0.47 0.0 0 0 240.90 244.27&#10;  L 242.43 222.91&#10;  A 0.32 0.32 0.0 0 0 242.17 222.57&#10;  L 216.71 217.89&#10;  Q 216.04 217.77 215.91 218.44&#10;  L 212.96 234.51&#10;  Z&#10;  M 312.83 223.34&#10;  L 293.20 225.06&#10;  Q 292.38 225.13 292.18 225.93&#10;  L 288.35 241.42&#10;  Q 288.29 241.65 288.52 241.57&#10;  Q 303.21 236.14 313.07 223.78&#10;  Q 313.46 223.29 312.83 223.34&#10;  Z&#10;  M 253.84 224.96&#10;  L 250.05 245.60&#10;  Q 249.97 245.99 250.37 246.02&#10;  Q 263.79 247.14 276.95 244.96&#10;  A 1.98 1.97 -88.0 0 0 278.56 243.45&#10;  Q 280.51 235.11 281.20 225.63&#10;  A 0.11 0.10 3.2 0 0 281.10 225.53&#10;  L 254.65 224.31&#10;  A 0.79 0.79 0.0 0 0 253.84 224.96&#10;  Z"/>
<path fill="#fdfdfe" d="&#10;  M 225.04 186.07&#10;  C 232.27 185.52 240.22 185.90 247.46 186.69&#10;  A 0.31 0.31 0.0 0 1 247.74 187.04&#10;  L 244.51 211.34&#10;  A 1.11 1.11 0.0 0 1 243.21 212.29&#10;  L 219.13 207.86&#10;  A 0.53 0.53 0.0 0 1 218.71 207.21&#10;  L 223.65 187.24&#10;  A 1.55 1.55 0.0 0 1 225.04 186.07&#10;  Z"/>
<path fill="#fdfdfe" d="&#10;  M 211.44 187.90&#10;  L 207.32 204.56&#10;  A 0.35 0.34 -75.0 0 1 206.90 204.81&#10;  Q 197.26 202.35 188.19 198.56&#10;  A 2.00 1.99 24.8 0 1 187.18 195.82&#10;  Q 188.00 194.23 189.59 193.34&#10;  Q 199.69 187.76 210.86 187.19&#10;  A 0.57 0.57 0.0 0 1 211.44 187.90&#10;  Z"/>
<path fill="#fdfdfe" d="&#10;  M 255.96 213.47&#10;  L 259.16 189.31&#10;  Q 259.29 188.33 260.27 188.50&#10;  Q 272.32 190.51 282.20 193.76&#10;  A 0.65 0.63 9.9 0 1 282.65 194.38&#10;  L 282.21 214.12&#10;  Q 282.18 215.09 281.22 215.04&#10;  L 256.32 213.90&#10;  A 0.38 0.38 0.0 0 1 255.96 213.47&#10;  Z"/>
<path fill="#fdfdfe" d="&#10;  M 315.85 212.31&#10;  Q 306.91 214.40 294.80 214.65&#10;  A 0.22 0.22 0.0 0 1 294.58 214.42&#10;  L 295.30 198.76&#10;  Q 295.32 198.29 295.80 198.35&#10;  Q 296.86 198.49 298.68 199.28&#10;  Q 305.32 202.19 311.34 206.38&#10;  Q 314.76 208.76 316.36 210.95&#10;  A 0.87 0.87 0.0 0 1 315.85 212.31&#10;  Z"/>
<path fill="#fdfdfe" d="&#10;  M 205.10 214.97&#10;  L 204.39 230.21&#10;  A 0.21 0.21 0.0 0 1 204.05 230.37&#10;  C 197.46 225.16 189.76 217.52 186.60 209.62&#10;  Q 186.12 208.42 187.30 208.95&#10;  Q 195.51 212.64 204.99 214.83&#10;  A 0.15 0.14 7.9 0 1 205.10 214.97&#10;  Z"/>
<path fill="#fdfdfe" d="&#10;  M 212.96 234.51&#10;  L 215.91 218.44&#10;  Q 216.04 217.77 216.71 217.89&#10;  L 242.17 222.57&#10;  A 0.32 0.32 0.0 0 1 242.43 222.91&#10;  L 240.90 244.27&#10;  A 0.47 0.47 0.0 0 1 240.34 244.69&#10;  Q 227.96 242.15 216.60 237.17&#10;  Q 214.75 236.36 213.28 235.31&#10;  Q 212.87 235.01 212.96 234.51&#10;  Z"/>
<path fill="#fdfdfe" d="&#10;  M 293.20 225.06&#10;  L 312.83 223.34&#10;  Q 313.46 223.29 313.07 223.78&#10;  Q 303.21 236.14 288.52 241.57&#10;  Q 288.29 241.65 288.35 241.42&#10;  L 292.18 225.93&#10;  Q 292.38 225.13 293.20 225.06&#10;  Z"/>
<path fill="#fdfdfe" d="&#10;  M 250.05 245.60&#10;  L 253.84 224.96&#10;  A 0.79 0.79 0.0 0 1 254.65 224.31&#10;  L 281.10 225.53&#10;  A 0.11 0.10 3.2 0 1 281.20 225.63&#10;  Q 280.51 235.11 278.56 243.45&#10;  A 1.98 1.97 -88.0 0 1 276.95 244.96&#10;  Q 263.79 247.14 250.37 246.02&#10;  Q 249.97 245.99 250.05 245.60&#10;  Z"/>
<path fill="#a56714" d="&#10;  M 85.79 228.40&#10;  Q 78.91 235.91 73.95 245.36&#10;  L 44.19 259.02&#10;  Q 40.95 260.51 43.62 258.15&#10;  L 81.54 224.54&#10;  A 0.52 0.52 0.0 0 1 82.20 224.52&#10;  Q 84.26 226.12 85.79 228.40&#10;  Z"/>
<path fill="#e29620" d="&#10;  M 85.79 228.40&#10;  L 91.50 236.77&#10;  Q 91.80 237.22 91.31 237.44&#10;  L 73.95 245.36&#10;  Q 78.91 235.91 85.79 228.40&#10;  Z"/>
<path fill="#c4a5a4" d="&#10;  M 65.83 262.26&#10;  L 116.82 240.66&#10;  A 1.18 1.18 0.0 0 1 118.45 241.59&#10;  L 120.27 254.73&#10;  A 0.20 0.20 0.0 0 1 120.10 254.96&#10;  L 65.88 262.47&#10;  Q 65.05 262.59 65.83 262.26&#10;  Z"/>
<path fill="#cad5dd" d="&#10;  M 265.91 279.85&#10;  Q 276.38 286.01 284.89 294.29&#10;  C 293.40 302.58 298.44 311.81 301.48 323.11&#10;  C 306.16 340.51 301.52 359.77 293.01 375.50&#10;  Q 290.69 379.78 287.60 383.49&#10;  Q 287.30 383.85 287.42 384.31&#10;  Q 287.49 384.56 287.77 384.55&#10;  Q 274.67 391.90 263.27 400.00&#10;  Q 252.24 404.12 241.89 405.17&#10;  L 241.91 395.21&#10;  Q 241.91 394.69 242.42 394.63&#10;  Q 247.94 393.94 254.74 391.25&#10;  Q 268.76 385.71 271.61 371.77&#10;  C 275.87 350.89 259.70 341.75 242.62 337.89&#10;  Q 241.83 337.71 241.85 336.90&#10;  L 242.43 310.73&#10;  Q 242.44 310.33 242.83 310.40&#10;  Q 251.03 311.71 258.04 317.04&#10;  Q 259.26 317.97 259.78 318.86&#10;  A 0.26 0.25 48.9 0 0 260.20 318.89&#10;  L 269.65 307.12&#10;  Q 270.01 306.66 269.55 306.31&#10;  Q 257.38 297.09 242.83 295.12&#10;  Q 242.28 295.04 242.30 294.49&#10;  L 242.44 287.89&#10;  A 0.56 0.56 0.0 0 0 241.89 287.31&#10;  L 231.25 287.07&#10;  A 0.70 0.70 0.0 0 0 230.54 287.75&#10;  L 230.39 294.52&#10;  Q 230.38 295.08 229.83 295.16&#10;  C 213.89 297.55 200.23 307.99 202.23 325.77&#10;  C 203.98 341.22 215.94 347.08 229.64 350.82&#10;  Q 230.17 350.97 230.15 351.51&#10;  L 229.54 379.20&#10;  Q 229.53 379.69 229.05 379.59&#10;  Q 218.09 377.26 210.86 369.23&#10;  A 0.53 0.52 -46.3 0 0 210.06 369.25&#10;  L 200.92 380.64&#10;  A 0.98 0.97 44.3 0 0 200.94 381.89&#10;  C 207.63 389.59 219.32 393.77 229.35 395.02&#10;  A 0.55 0.54 -86.4 0 1 229.82 395.56&#10;  L 229.74 406.40&#10;  Q 216.50 404.63 202.49 400.98&#10;  L 189.79 395.60&#10;  Q 188.84 395.19 188.11 394.45&#10;  Q 184.19 390.40 179.94 386.10&#10;  Q 166.36 372.33 158.00 355.47&#10;  Q 157.77 355.01 158.27 354.88&#10;  Q 163.24 353.60 165.51 353.27&#10;  C 174.35 351.99 181.15 343.70 180.04 334.84&#10;  Q 179.21 328.26 178.24 321.53&#10;  Q 178.16 320.97 178.62 320.65&#10;  Q 190.86 312.11 189.96 296.57&#10;  Q 189.22 283.76 178.91 276.42&#10;  Q 178.34 276.02 178.89 275.60&#10;  L 193.04 264.86&#10;  A 0.83 0.83 0.0 0 1 193.88 264.76&#10;  Q 228.24 280.19 265.91 279.85&#10;  Z"/>
<path fill="#a56714" d="&#10;  M 147.49 281.83&#10;  L 149.30 265.31&#10;  Q 153.19 264.47 153.81 266.95&#10;  Q 155.45 273.60 156.63 279.98&#10;  A 0.59 0.59 0.0 0 1 156.13 280.67&#10;  L 147.49 281.83&#10;  Z"/>
<path fill="#e29620" d="&#10;  M 149.30 265.31&#10;  L 147.49 281.83&#10;  Q 145.63 282.20 143.63 282.69&#10;  C 136.96 284.32 132.68 289.82 131.50 296.51&#10;  Q 130.95 299.63 132.70 308.87&#10;  Q 134.25 317.10 139.26 321.59&#10;  Q 136.55 321.18 134.71 317.25&#10;  A 0.62 0.61 56.6 0 0 133.74 317.05&#10;  Q 129.44 320.90 124.14 324.13&#10;  Q 106.30 334.97 86.43 340.65&#10;  C 67.75 345.99 51.15 348.31 33.19 351.32&#10;  L 31.57 340.58&#10;  Q 31.49 340.05 32.03 339.99&#10;  C 40.33 339.01 46.75 339.41 52.79 332.55&#10;  C 58.68 325.87 56.85 320.01 56.16 311.86&#10;  Q 55.72 306.62 54.36 304.03&#10;  C 51.24 298.08 45.22 293.72 38.42 293.88&#10;  Q 33.19 294.00 25.45 295.04&#10;  A 0.51 0.51 0.0 0 1 24.87 294.60&#10;  L 23.24 282.87&#10;  Q 23.18 282.43 23.62 282.30&#10;  Q 24.69 282.00 26.63 281.66&#10;  Q 34.93 280.21 58.52 277.10&#10;  Q 103.86 271.13 149.30 265.31&#10;  Z"/>
<path fill="#90a0aa" d="&#10;  M 318.40 371.01&#10;  Q 318.38 370.83 318.37 370.70&#10;  Q 318.35 370.42 318.06 370.40&#10;  Q 317.92 370.38 317.77 370.43&#10;  Q 305.14 374.64 293.42 380.94&#10;  Q 293.10 381.11 292.94 381.30&#10;  Q 292.75 381.54 292.99 381.72&#10;  Q 293.09 381.79 293.23 381.87&#10;  L 287.77 384.55&#10;  Q 287.49 384.56 287.42 384.31&#10;  Q 287.30 383.85 287.60 383.49&#10;  Q 290.69 379.78 293.01 375.50&#10;  C 301.52 359.77 306.16 340.51 301.48 323.11&#10;  C 298.44 311.81 293.40 302.58 284.89 294.29&#10;  Q 276.38 286.01 265.91 279.85&#10;  Q 284.72 279.99 302.94 275.95&#10;  Q 303.51 275.82 303.99 276.17&#10;  Q 317.52 286.08 325.81 301.90&#10;  Q 339.22 327.51 329.27 354.01&#10;  Q 326.92 360.24 321.64 369.60&#10;  Q 321.39 370.05 320.90 370.21&#10;  L 318.40 371.01&#10;  Z"/>
<path fill="#010101" d="&#10;  M 241.89 405.17&#10;  Q 242.14 406.17 241.83 406.85&#10;  Q 241.62 407.32 241.10 407.28&#10;  L 229.74 406.40&#10;  L 229.82 395.56&#10;  A 0.55 0.54 -86.4 0 0 229.35 395.02&#10;  C 219.32 393.77 207.63 389.59 200.94 381.89&#10;  A 0.98 0.97 44.3 0 1 200.92 380.64&#10;  L 210.06 369.25&#10;  A 0.53 0.52 -46.3 0 1 210.86 369.23&#10;  Q 218.09 377.26 229.05 379.59&#10;  Q 229.53 379.69 229.54 379.20&#10;  L 230.15 351.51&#10;  Q 230.17 350.97 229.64 350.82&#10;  C 215.94 347.08 203.98 341.22 202.23 325.77&#10;  C 200.23 307.99 213.89 297.55 229.83 295.16&#10;  Q 230.38 295.08 230.39 294.52&#10;  L 230.54 287.75&#10;  A 0.70 0.70 0.0 0 1 231.25 287.07&#10;  L 241.89 287.31&#10;  A 0.56 0.56 0.0 0 1 242.44 287.89&#10;  L 242.30 294.49&#10;  Q 242.28 295.04 242.83 295.12&#10;  Q 257.38 297.09 269.55 306.31&#10;  Q 270.01 306.66 269.65 307.12&#10;  L 260.20 318.89&#10;  A 0.26 0.25 48.9 0 1 259.78 318.86&#10;  Q 259.26 317.97 258.04 317.04&#10;  Q 251.03 311.71 242.83 310.40&#10;  Q 242.44 310.33 242.43 310.73&#10;  L 241.85 336.90&#10;  Q 241.83 337.71 242.62 337.89&#10;  C 259.70 341.75 275.87 350.89 271.61 371.77&#10;  Q 268.76 385.71 254.74 391.25&#10;  Q 247.94 393.94 242.42 394.63&#10;  Q 241.91 394.69 241.91 395.21&#10;  L 241.89 405.17&#10;  Z&#10;  M 229.86 334.02&#10;  L 230.37 311.33&#10;  Q 230.38 310.73 229.79 310.81&#10;  Q 222.24 311.86 219.96 317.61&#10;  C 216.85 325.44 222.18 332.04 229.37 334.37&#10;  Q 229.85 334.53 229.86 334.02&#10;  Z&#10;  M 242.14 354.35&#10;  L 242.32 378.88&#10;  A 0.12 0.12 0.0 0 0 242.44 379.00&#10;  L 242.49 379.00&#10;  A 12.69 12.35 -0.4 0 0 255.09 366.57&#10;  L 255.09 366.49&#10;  A 12.69 12.35 -0.4 0 0 242.31 354.22&#10;  L 242.26 354.22&#10;  A 0.12 0.12 0.0 0 0 242.14 354.35&#10;  Z"/>
<path fill="#cad5dd" d="&#10;  M 175.96 297.51&#10;  Q 173.50 303.76 168.11 305.12&#10;  Q 158.52 307.55 146.07 305.80&#10;  C 144.38 300.15 145.03 296.82 151.31 295.70&#10;  Q 154.42 295.14 163.01 294.31&#10;  Q 167.84 293.85 170.93 290.26&#10;  A 0.46 0.46 0.0 0 1 171.56 290.20&#10;  Q 175.02 292.97 175.96 297.51&#10;  Z"/>
<path fill="#fdfdfe" d="&#10;  M 387.08 299.48&#10;  Q 380.98 299.46 375.00 299.36&#10;  Q 374.26 299.35 373.73 299.81&#10;  Q 373.39 300.10 373.19 300.09&#10;  Q 372.90 300.06 372.59 299.78&#10;  L 372.85 294.49&#10;  A 0.77 0.77 0.0 0 1 373.64 293.75&#10;  L 387.85 294.06&#10;  Q 388.51 294.08 388.34 294.71&#10;  L 387.08 299.48&#10;  Z"/>
<path fill="#cad5dd" d="&#10;  M 366.94 300.96&#10;  Q 365.29 301.80 362.91 301.51&#10;  Q 359.28 301.06 357.30 300.09&#10;  Q 356.44 298.18 356.56 296.39&#10;  Q 356.60 295.81 357.17 295.73&#10;  L 366.45 294.45&#10;  Q 367.08 294.36 367.06 294.99&#10;  L 366.94 300.96&#10;  Z"/>
<path fill="#fdfdfe" d="&#10;  M 417.84 304.07&#10;  L 395.90 299.36&#10;  A 0.94 0.93 -78.5 0 0 394.79 300.10&#10;  L 393.06 309.20&#10;  Q 392.50 301.71 395.41 295.33&#10;  Q 395.63 294.84 396.16 294.86&#10;  Q 408.39 295.28 420.16 299.42&#10;  A 0.41 0.41 0.0 0 1 420.37 300.03&#10;  L 417.84 304.07&#10;  Z"/>
<path fill="#90a0aa" d="&#10;  M 175.96 297.51&#10;  C 176.69 301.71 174.19 308.54 169.12 309.11&#10;  Q 162.03 309.92 154.96 310.82&#10;  Q 151.37 311.27 149.58 310.55&#10;  Q 146.52 309.32 146.07 305.80&#10;  Q 158.52 307.55 168.11 305.12&#10;  Q 173.50 303.76 175.96 297.51&#10;  Z"/>
<path fill="#90a0aa" d="&#10;  M 351.13 297.62&#10;  Q 351.37 300.07 352.42 302.18&#10;  Q 352.70 302.76 352.09 302.56&#10;  L 344.28 300.09&#10;  Q 342.83 299.63 344.29 299.21&#10;  L 350.74 297.36&#10;  A 0.31 0.31 0.0 0 1 351.13 297.62&#10;  Z"/>
<path fill="#cad5dd" d="&#10;  M 387.08 299.48&#10;  L 386.18 307.89&#10;  L 372.55 304.49&#10;  L 372.59 299.78&#10;  Q 372.90 300.06 373.19 300.09&#10;  Q 373.39 300.10 373.73 299.81&#10;  Q 374.26 299.35 375.00 299.36&#10;  Q 380.98 299.46 387.08 299.48&#10;  Z"/>
<path fill="#cad5dd" d="&#10;  M 417.84 304.07&#10;  L 413.51 314.12&#10;  L 392.82 308.85&#10;  Q 392.94 309.02 393.06 309.20&#10;  L 394.79 300.10&#10;  A 0.94 0.93 -78.5 0 1 395.90 299.36&#10;  L 417.84 304.07&#10;  Z"/>
<path fill="#90a0aa" d="&#10;  M 366.94 300.96&#10;  L 367.08 306.52&#10;  A 0.52 0.51 -82.0 0 1 366.41 307.03&#10;  Q 363.46 306.09 360.43 305.10&#10;  C 358.03 304.32 357.40 302.39 357.30 300.09&#10;  Q 359.28 301.06 362.91 301.51&#10;  Q 365.29 301.80 366.94 300.96&#10;  Z"/>
<path fill="#cad5dd" d="&#10;  M 421.34 317.56&#10;  C 421.54 311.53 423.94 307.88 427.31 302.83&#10;  A 1.40 1.39 28.5 0 1 429.01 302.33&#10;  Q 435.52 305.14 440.20 309.80&#10;  C 441.99 311.58 441.11 313.60 439.50 315.11&#10;  C 435.96 318.44 426.98 318.80 422.10 318.41&#10;  A 0.83 0.82 -87.1 0 1 421.34 317.56&#10;  Z"/>
<path fill="#90a0aa" d="&#10;  M 386.18 307.89&#10;  L 386.30 312.30&#10;  Q 386.31 312.68 385.95 312.59&#10;  L 373.45 309.49&#10;  Q 372.84 309.34 372.80 308.71&#10;  L 372.55 304.49&#10;  L 386.18 307.89&#10;  Z"/>
<path fill="#fcfbfa" fill-opacity="0.933" d="&#10;  M 42.52 318.08&#10;  Q 33.31 320.04 23.87 320.06&#10;  C 20.66 320.07 17.78 319.19 14.52 318.61&#10;  Q 13.92 314.63 15.90 312.39&#10;  Q 17.24 310.87 21.18 310.37&#10;  Q 33.34 308.84 37.66 308.86&#10;  C 41.52 308.88 42.63 314.90 42.52 318.08&#10;  Z"/>
<path fill="#90a0aa" d="&#10;  M 413.51 314.12&#10;  L 412.65 317.23&#10;  A 0.76 0.76 0.0 0 1 411.88 317.79&#10;  Q 407.43 317.58 405.38 316.37&#10;  L 393.43 313.26&#10;  L 392.82 308.85&#10;  L 413.51 314.12&#10;  Z"/>
<path fill="#cad5dd" d="&#10;  M 229.86 334.02&#10;  Q 229.85 334.53 229.37 334.37&#10;  C 222.18 332.04 216.85 325.44 219.96 317.61&#10;  Q 222.24 311.86 229.79 310.81&#10;  Q 230.38 310.73 230.37 311.33&#10;  L 229.86 334.02&#10;  Z"/>
<path fill="#cad5dd" d="&#10;  M 405.38 316.37&#10;  Q 398.25 315.87 394.50 314.80&#10;  Q 393.51 314.52 393.43 313.26&#10;  L 405.38 316.37&#10;  Z"/>
<path fill="#a56714" d="&#10;  M 139.26 321.59&#10;  Q 144.85 325.86 150.76 325.10&#10;  Q 160.64 323.84 163.53 323.51&#10;  Q 164.35 323.42 164.46 324.23&#10;  L 166.26 337.25&#10;  A 2.88 2.88 0.0 0 1 163.80 340.50&#10;  L 35.66 358.26&#10;  A 0.94 0.94 0.0 0 1 34.67 357.72&#10;  Q 33.41 354.92 33.19 351.32&#10;  C 51.15 348.31 67.75 345.99 86.43 340.65&#10;  Q 106.30 334.97 124.14 324.13&#10;  Q 129.44 320.90 133.74 317.05&#10;  A 0.62 0.61 56.6 0 1 134.71 317.25&#10;  Q 136.55 321.18 139.26 321.59&#10;  Z"/>
<path fill="#90a0aa" d="&#10;  M 42.52 318.08&#10;  Q 42.80 320.85 41.25 322.75&#10;  Q 40.09 324.17 37.26 324.57&#10;  Q 31.94 325.31 26.70 326.18&#10;  Q 16.71 327.84 14.52 318.61&#10;  C 17.78 319.19 20.66 320.07 23.87 320.06&#10;  Q 33.31 320.04 42.52 318.08&#10;  Z"/>
<path fill="#cad5dd" d="&#10;  M 242.14 354.35&#10;  A 0.12 0.12 0.0 0 1 242.26 354.22&#10;  L 242.31 354.22&#10;  A 12.69 12.35 -0.4 0 1 255.09 366.49&#10;  L 255.09 366.57&#10;  A 12.69 12.35 -0.4 0 1 242.49 379.00&#10;  L 242.44 379.00&#10;  A 0.12 0.12 0.0 0 1 242.32 378.88&#10;  L 242.14 354.35&#10;  Z"/>
<path fill="#cad5dd" d="&#10;  M 318.40 371.01&#10;  Q 305.45 375.60 293.23 381.87&#10;  Q 293.09 381.79 292.99 381.72&#10;  Q 292.75 381.54 292.94 381.30&#10;  Q 293.10 381.11 293.42 380.94&#10;  Q 305.14 374.64 317.77 370.43&#10;  Q 317.92 370.38 318.06 370.40&#10;  Q 318.35 370.42 318.37 370.70&#10;  Q 318.38 370.83 318.40 371.01&#10;  Z"/>
<path fill="#fdfdfe" d="&#10;  M 409.74 379.09&#10;  Q 404.85 379.52 399.93 379.45&#10;  C 386.35 379.25 372.79 380.79 358.98 382.64&#10;  C 352.69 383.49 345.30 385.20 340.21 386.18&#10;  Q 333.74 387.43 326.27 389.54&#10;  C 306.52 395.12 286.59 403.38 268.69 414.61&#10;  Q 268.27 415.06 267.95 414.84&#10;  Q 267.88 415.13 267.75 414.50&#10;  C 278.19 405.70 290.44 398.77 301.90 392.88&#10;  C 314.05 386.64 328.20 382.64 342.25 379.81&#10;  Q 375.81 373.06 409.74 379.09&#10;  Z"/>
<path fill="#2eab38" d="&#10;  M 409.74 379.09&#10;  L 429.78 383.82&#10;  Q 430.74 384.04 430.35 384.95&#10;  L 421.41 405.86&#10;  Q 419.42 405.15 418.60 406.09&#10;  Q 399.61 427.81 374.58 441.00&#10;  C 360.00 448.67 345.97 452.23 329.43 453.41&#10;  Q 322.07 453.93 317.27 452.66&#10;  C 334.83 437.49 353.96 424.43 375.22 414.97&#10;  Q 381.30 412.27 388.04 410.18&#10;  A 0.78 0.78 0.0 0 0 388.47 409.02&#10;  Q 387.87 408.08 386.27 408.18&#10;  Q 380.40 408.53 374.08 410.12&#10;  C 348.05 416.68 323.56 431.13 303.07 448.60&#10;  Q 281.26 437.59 269.29 416.55&#10;  Q 268.85 415.78 268.69 414.61&#10;  C 286.59 403.38 306.52 395.12 326.27 389.54&#10;  Q 333.74 387.43 340.21 386.18&#10;  C 345.30 385.20 352.69 383.49 358.98 382.64&#10;  C 372.79 380.79 386.35 379.25 399.93 379.45&#10;  Q 404.85 379.52 409.74 379.09&#10;  Z"/>
<path fill="#fdfdfe" d="&#10;  M 126.27 393.87&#10;  L 124.84 398.20&#10;  A 2.22 2.20 -60.3 0 0 125.47 400.55&#10;  L 128.31 403.04&#10;  Q 102.01 400.10 75.74 401.85&#10;  Q 54.79 403.25 35.64 408.42&#10;  Q 28.85 410.25 20.21 413.68&#10;  Q 25.07 410.31 30.36 408.09&#10;  C 38.55 404.65 47.75 401.11 56.75 398.95&#10;  C 79.47 393.51 102.96 391.68 126.27 393.87&#10;  Z"/>
<path fill="#fcfbfa" fill-opacity="0.933" d="&#10;  M 228.43 434.26&#10;  Q 228.63 435.30 228.45 436.20&#10;  Q 228.34 436.73 228.76 437.06&#10;  L 229.57 437.71&#10;  Q 230.12 438.16 229.41 438.07&#10;  L 228.55 437.96&#10;  Q 213.92 428.98 207.57 425.92&#10;  Q 169.81 407.72 128.31 403.04&#10;  L 125.47 400.55&#10;  A 2.22 2.20 -60.3 0 1 124.84 398.20&#10;  L 126.27 393.87&#10;  Q 168.36 398.32 205.07 418.42&#10;  Q 217.07 424.99 228.43 434.26&#10;  Z"/>
<path fill="#90a0aa" d="&#10;  M 263.27 400.00&#10;  L 248.36 412.52&#10;  Q 242.73 416.14 238.40 420.95&#10;  A 1.63 1.63 0.0 0 1 236.14 421.12&#10;  Q 227.52 413.96 217.45 408.32&#10;  Q 215.96 407.48 216.18 408.53&#10;  L 202.49 400.98&#10;  Q 216.50 404.63 229.74 406.40&#10;  L 241.10 407.28&#10;  Q 241.62 407.32 241.83 406.85&#10;  Q 242.14 406.17 241.89 405.17&#10;  Q 252.24 404.12 263.27 400.00&#10;  Z"/>
<path fill="#2eab38" d="&#10;  M 128.31 403.04&#10;  Q 169.81 407.72 207.57 425.92&#10;  Q 213.92 428.98 228.55 437.96&#10;  L 233.88 441.30&#10;  L 238.30 443.94&#10;  Q 234.02 456.29 227.94 464.94&#10;  Q 224.49 469.84 216.16 479.11&#10;  Q 205.21 472.74 197.69 468.84&#10;  C 164.55 451.67 127.16 440.00 90.27 438.94&#10;  A 0.87 0.86 8.5 0 0 89.41 439.57&#10;  Q 89.28 440.00 89.52 440.40&#10;  Q 89.71 440.70 90.30 440.84&#10;  Q 125.02 448.57 160.89 464.36&#10;  Q 186.36 475.57 207.80 489.24&#10;  C 205.39 489.58 204.03 488.03 201.89 487.99&#10;  Q 200.36 487.96 199.16 488.42&#10;  Q 190.43 491.76 184.41 492.91&#10;  C 156.31 498.23 127.55 492.97 101.18 480.83&#10;  Q 86.49 474.06 67.59 462.01&#10;  C 55.18 454.10 43.88 444.52 32.80 434.45&#10;  Q 29.85 431.76 25.73 429.80&#10;  Q 22.48 424.29 19.27 418.72&#10;  Q 18.39 417.20 17.92 415.47&#10;  Q 17.78 414.98 18.13 414.61&#10;  Q 19.17 413.53 20.21 413.68&#10;  Q 28.85 410.25 35.64 408.42&#10;  Q 54.79 403.25 75.74 401.85&#10;  Q 102.01 400.10 128.31 403.04&#10;  Z"/>
<path fill="#258c32" d="&#10;  M 421.41 405.86&#10;  Q 410.37 429.37 393.97 451.72&#10;  C 376.77 475.16 355.08 495.50 330.62 511.85&#10;  Q 318.40 520.02 304.09 526.09&#10;  A 0.24 0.24 0.0 0 1 303.75 525.91&#10;  Q 299.90 504.33 288.85 484.03&#10;  Q 288.45 483.29 288.92 482.60&#10;  Q 292.09 478.01 295.91 473.90&#10;  Q 306.37 462.64 317.27 452.66&#10;  Q 322.07 453.93 329.43 453.41&#10;  C 345.97 452.23 360.00 448.67 374.58 441.00&#10;  Q 399.61 427.81 418.60 406.09&#10;  Q 419.42 405.15 421.41 405.86&#10;  Z"/>
<path fill="#cad5dd" d="&#10;  M 248.36 412.52&#10;  L 238.08 422.55&#10;  A 0.92 0.91 -47.2 0 1 236.86 422.60&#10;  Q 227.23 414.66 216.18 408.53&#10;  Q 215.96 407.48 217.45 408.32&#10;  Q 227.52 413.96 236.14 421.12&#10;  A 1.63 1.63 0.0 0 0 238.40 420.95&#10;  Q 242.73 416.14 248.36 412.52&#10;  Z"/>
<path fill="#2eab38" d="&#10;  M 267.75 414.50&#10;  Q 267.88 415.13 267.95 414.84&#10;  Q 265.09 418.72 261.57 419.90&#10;  L 267.75 414.50&#10;  Z"/>
<path fill="#258c32" d="&#10;  M 268.69 414.61&#10;  Q 268.85 415.78 269.29 416.55&#10;  Q 281.26 437.59 303.07 448.60&#10;  Q 291.42 458.78 281.27 470.40&#10;  A 0.37 0.37 0.0 0 1 280.68 470.36&#10;  Q 266.44 449.92 248.49 432.59&#10;  A 0.64 0.64 0.0 0 1 248.45 431.69&#10;  Q 254.42 425.02 261.57 419.90&#10;  Q 265.09 418.72 267.95 414.84&#10;  Q 268.27 415.06 268.69 414.61&#10;  Z"/>
<path fill="#258c32" d="&#10;  M 207.80 489.24&#10;  C 231.28 502.96 251.99 519.43 274.14 536.68&#10;  A 0.28 0.28 0.0 0 1 274.05 537.17&#10;  C 265.19 539.92 255.97 541.93 246.52 543.02&#10;  Q 185.29 550.06 128.78 524.32&#10;  C 91.18 507.19 59.64 479.03 35.67 445.09&#10;  Q 29.26 436.02 25.73 429.80&#10;  Q 29.85 431.76 32.80 434.45&#10;  C 43.88 444.52 55.18 454.10 67.59 462.01&#10;  Q 86.49 474.06 101.18 480.83&#10;  C 127.55 492.97 156.31 498.23 184.41 492.91&#10;  Q 190.43 491.76 199.16 488.42&#10;  Q 200.36 487.96 201.89 487.99&#10;  C 204.03 488.03 205.39 489.58 207.80 489.24&#10;  Z"/>
<path fill="#90a0aa" d="&#10;  M 228.43 434.26&#10;  L 235.76 440.11&#10;  Q 234.36 440.46 233.88 441.30&#10;  L 228.55 437.96&#10;  L 229.41 438.07&#10;  Q 230.12 438.16 229.57 437.71&#10;  L 228.76 437.06&#10;  Q 228.34 436.73 228.45 436.20&#10;  Q 228.63 435.30 228.43 434.26&#10;  Z"/>
<path fill="#cad5dd" d="&#10;  M 235.76 440.11&#10;  L 241.00 444.95&#10;  Q 240.89 445.32 240.61 445.62&#10;  Q 239.59 444.59 238.30 443.94&#10;  L 233.88 441.30&#10;  Q 234.36 440.46 235.76 440.11&#10;  Z"/>
<path fill="#258c32" d="&#10;  M 238.30 443.94&#10;  Q 239.59 444.59 240.61 445.62&#10;  L 246.99 451.52&#10;  Q 247.52 452.01 247.34 451.31&#10;  L 247.24 450.91&#10;  Q 281.02 483.49 290.79 529.48&#10;  Q 291.04 530.65 290.85 531.39&#10;  A 0.87 0.87 0.0 0 1 289.46 531.85&#10;  Q 273.79 518.92 255.27 504.97&#10;  Q 241.00 494.22 216.16 479.11&#10;  Q 224.49 469.84 227.94 464.94&#10;  Q 234.02 456.29 238.30 443.94&#10;  Z"/>
<path fill="#2eab38" d="&#10;  M 247.24 450.91&#10;  L 247.34 451.31&#10;  Q 247.52 452.01 246.99 451.52&#10;  L 240.61 445.62&#10;  Q 240.89 445.32 241.00 444.95&#10;  L 247.24 450.91&#10;  Z"/>
</svg>